<?xml version="1.0" encoding="utf-8"?>
<!-- Generator: Adobe Illustrator 22.1.0, SVG Export Plug-In . SVG Version: 6.00 Build 0)  -->
<svg version="1.1" id="Layer_1" xmlns="http://www.w3.org/2000/svg" xmlns:xlink="http://www.w3.org/1999/xlink" x="0px" y="0px"
	 viewBox="0 0 700 700" style="enable-background:new 0 0 700 700;" xml:space="preserve">
<style type="text/css">
	.st0{fill:none;stroke:#BDBDBD;stroke-width:3;stroke-miterlimit:10;}
	.st1{fill:#FFFFFF;stroke:#BDBDBD;stroke-width:3;stroke-miterlimit:10;}
</style>
<polyline class="st0" points="95.5,70 95.5,201.5 213.5,201.5 343,331 "/>
<polyline class="st0" points="125.5,39 125.5,171.5 243.5,171.5 381,309 "/>
<polyline class="st0" points="157.5,70.5 155.5,141.5 273.5,141.5 404,272 "/>
<line class="st0" x1="85.5" y1="229.5" x2="202.5" y2="229.5"/>
<line class="st0" x1="115.5" y1="259.5" x2="232.5" y2="259.5"/>
<line class="st0" x1="145.5" y1="289.5" x2="262.5" y2="289.5"/>
<line class="st0" x1="175.5" y1="319.5" x2="292.5" y2="319.5"/>
<line class="st0" x1="205.5" y1="349.5" x2="322.5" y2="349.5"/>
<path class="st0" d="M362.5,379.5"/>
<path class="st0" d="M245.5,379.5"/>
<polyline class="st0" points="185.5,39.5 278.5,39.5 278.5,112.5 185.5,112.5 185.5,73.5 254.5,73.5 "/>
<polyline class="st0" points="158.5,13.7 312.5,13.7 312.5,137.5 "/>
<polyline class="st0" points="92.5,12.5 47.5,56.5 23.5,80.5 23.5,207.5 "/>
<polyline class="st0" points="342.5,87.5 342.5,137.5 468.5,137.5 "/>
<polyline class="st0" points="372.5,57.5 372.5,107.5 498.5,107.5 "/>
<polyline class="st0" points="402.5,27.5 402.5,77.5 528.5,77.5 "/>
<polyline class="st0" points="432.5,-2.5 432.5,47.5 558.5,47.5 "/>
<line class="st0" x1="327.5" y1="52.5" x2="364.5" y2="15.5"/>
<path class="st0" d="M337.5-7.5"/>
<polyline class="st0" points="481,17.5 639,17.5 422.5,234 "/>
<polyline class="st0" points="379.6,217.7 343.5,181.5 368,157 411.5,200.5 "/>
<path class="st0" d="M379.6,217.7"/>
<path class="st0" d="M419.6,257.7"/>
<polyline class="st0" points="450.5,265.5 652,64 652,366.5 "/>
<polyline class="st0" points="414.5,351.5 622,144 622,446.5 "/>
<polyline class="st0" points="53.5,108 53.5,237 206,389.5 356.5,389.5 578.5,611.5 "/>
<polyline class="st0" points="33.3,276.8 176,419.5 326.5,419.5 545.5,638.5 "/>
<polyline class="st0" points="24.5,315.5 152,443.5 302.5,443.5 524.5,665.5 "/>
<polyline class="st0" points="157,474.5 274.5,474.5 490.5,689.5 "/>
<line class="st0" x1="122" y1="508.5" x2="261" y2="508.5"/>
<line class="st0" x1="152" y1="538.5" x2="291" y2="538.5"/>
<line class="st0" x1="182" y1="568.5" x2="321" y2="568.5"/>
<line class="st0" x1="212" y1="598.5" x2="351" y2="598.5"/>
<line class="st0" x1="242" y1="628.5" x2="381" y2="628.5"/>
<line class="st0" x1="272" y1="658.5" x2="411" y2="658.5"/>
<polyline class="st0" points="389.5,378.5 586,575 586,260.5 462.3,384.3 527,449 "/>
<line class="st0" x1="511.5" y1="394.5" x2="560" y2="346"/>
<line class="st0" x1="627.5" y1="486.5" x2="701.5" y2="412.5"/>
<path class="st0" d="M675.2,478.8"/>
<circle class="st1" cx="95.8" cy="69.8" r="9.4"/>
<circle class="st1" cx="125.8" cy="39.8" r="9.4"/>
<circle class="st1" cx="157.8" cy="70.8" r="9.4"/>
<circle class="st1" cx="185.8" cy="39.8" r="9.4"/>
<ellipse class="st1" cx="155.8" cy="14.9" rx="9.4" ry="8.9"/>
<circle class="st1" cx="254.5" cy="73.8" r="9.4"/>
<circle class="st1" cx="312.5" cy="135.8" r="9.4"/>
<circle class="st1" cx="342.5" cy="88.8" r="9.4"/>
<circle class="st1" cx="372.5" cy="57.8" r="9.4"/>
<circle class="st1" cx="402.5" cy="26.8" r="9.4"/>
<circle class="st1" cx="432.5" cy="7.8" r="9.4"/>
<circle class="st1" cx="480.5" cy="17.8" r="9.4"/>
<circle class="st1" cx="556.5" cy="47.8" r="9.4"/>
<circle class="st1" cx="526.5" cy="77.8" r="9.4"/>
<circle class="st1" cx="496.5" cy="107.8" r="9.4"/>
<circle class="st1" cx="466.5" cy="137.8" r="9.4"/>
<circle class="st1" cx="411.5" cy="200.8" r="9.4"/>
<circle class="st1" cx="380.5" cy="217.8" r="9.4"/>
<circle class="st1" cx="422.5" cy="233.8" r="9.4"/>
<circle class="st1" cx="452.5" cy="263.8" r="9.4"/>
<circle class="st1" cx="403.5" cy="270.8" r="9.4"/>
<circle class="st1" cx="373.5" cy="300.8" r="9.4"/>
<circle class="st1" cx="343.5" cy="330.8" r="9.4"/>
<circle class="st1" cx="90.5" cy="229.5" r="9.4"/>
<circle class="st1" cx="120.5" cy="259.5" r="9.4"/>
<circle class="st1" cx="150.5" cy="289.5" r="9.4"/>
<circle class="st1" cx="180.5" cy="319.5" r="9.4"/>
<circle class="st1" cx="210.5" cy="349.5" r="9.4"/>
<circle class="st1" cx="202.5" cy="229.5" r="9.4"/>
<circle class="st1" cx="232.5" cy="259.5" r="9.4"/>
<circle class="st1" cx="262.5" cy="289.5" r="9.4"/>
<circle class="st1" cx="322.5" cy="349.5" r="9.4"/>
<circle class="st1" cx="292.5" cy="319.5" r="9.4"/>
<circle class="st1" cx="54.5" cy="105.5" r="9.4"/>
<circle class="st1" cx="123.5" cy="508.5" r="9.4"/>
<circle class="st1" cx="153.5" cy="538.5" r="9.4"/>
<circle class="st1" cx="213.5" cy="598.5" r="9.4"/>
<circle class="st1" cx="183.5" cy="568.5" r="9.4"/>
<circle class="st1" cx="243.5" cy="628.5" r="9.4"/>
<circle class="st1" cx="273.5" cy="658.5" r="9.4"/>
<circle class="st1" cx="403.5" cy="658.5" r="9.4"/>
<circle class="st1" cx="343.5" cy="598.5" r="9.4"/>
<circle class="st1" cx="373.5" cy="628.5" r="9.4"/>
<circle class="st1" cx="313.5" cy="568.5" r="9.4"/>
<circle class="st1" cx="283.5" cy="538.5" r="9.4"/>
<circle class="st1" cx="253.5" cy="508.5" r="9.4"/>
<circle class="st1" cx="389.5" cy="378.5" r="9.4"/>
<circle class="st1" cx="415.5" cy="351.5" r="9.4"/>
<circle class="st1" cx="513.5" cy="392.5" r="9.4"/>
<circle class="st1" cx="553.5" cy="352.5" r="9.4"/>
<circle class="st1" cx="525.5" cy="447.5" r="9.4"/>
<circle class="st1" cx="490.5" cy="689.5" r="9.4"/>
<circle class="st1" cx="653.5" cy="365.5" r="9.4"/>
<circle class="st1" cx="622.5" cy="444.5" r="9.4"/>
<circle class="st1" cx="628.5" cy="484.5" r="9.4"/>
<path class="st1" d="M628.5,515"/>
<circle class="st1" cx="27" cy="317" r="9.4"/>
<circle class="st1" cx="23" cy="207" r="9.4"/>
<circle class="st1" cx="94" cy="12" r="9.4"/>
<circle class="st1" cx="365" cy="16" r="9.4"/>
<circle class="st1" cx="329" cy="51" r="9.4"/>
<g>
	<path class="st1" d="M47.5,418c5.2,0,9.5-4.2,9.5-9.5c0-5.2-4.2-9.5-9.5-9.5s-9.5,4.2-9.5,9.5c0,2.4,0.9,4.5,2.3,6.2L47,408
		l-6.7,6.7C42.1,416.7,44.6,418,47.5,418z"/>
	<path class="st1" d="M47.5,458c5.2,0,9.5-4.2,9.5-9.5c0-5.2-4.2-9.5-9.5-9.5s-9.5,4.2-9.5,9.5c0,2.4,0.9,4.5,2.3,6.2L47,448
		l-6.7,6.7C42.1,456.7,44.6,458,47.5,458z"/>
	<path class="st1" d="M47.5,498c5.2,0,9.5-4.2,9.5-9.5c0-5.2-4.2-9.5-9.5-9.5s-9.5,4.2-9.5,9.5c0,2.4,0.9,4.5,2.3,6.2L47,488
		l-6.7,6.7C42.1,496.7,44.6,498,47.5,498z"/>
	<path class="st1" d="M47.5,538c5.2,0,9.5-4.2,9.5-9.5c0-5.2-4.2-9.5-9.5-9.5s-9.5,4.2-9.5,9.5c0,2.4,0.9,4.5,2.3,6.2L47,528
		l-6.7,6.7C42.1,536.7,44.6,538,47.5,538z"/>
	<path class="st1" d="M47.5,578c5.2,0,9.5-4.2,9.5-9.5c0-5.2-4.2-9.5-9.5-9.5s-9.5,4.2-9.5,9.5c0,2.4,0.9,4.5,2.3,6.2L47,568
		l-6.7,6.7C42.1,576.7,44.6,578,47.5,578z"/>
</g>
<line class="st0" x1="17" y1="398" x2="47" y2="368"/>
<line class="st0" x1="16.7" y1="438.3" x2="47" y2="408"/>
<line class="st0" x1="17.5" y1="477.5" x2="47" y2="448"/>
<line class="st0" x1="16.8" y1="518.2" x2="47" y2="488"/>
<line class="st0" x1="16.5" y1="558.5" x2="47" y2="528"/>
<line class="st0" x1="17" y1="598" x2="47" y2="568"/>
<circle class="st1" cx="47.5" cy="408.5" r="9.4"/>
<circle class="st1" cx="47.5" cy="448.5" r="9.4"/>
<circle class="st1" cx="47.5" cy="488.5" r="9.4"/>
<circle class="st1" cx="47.5" cy="528.5" r="9.4"/>
<circle class="st1" cx="47.5" cy="568.5" r="9.4"/>
<circle class="st1" cx="157.5" cy="473.5" r="9.4"/>
<path class="st1" d="M96.5,498.5"/>
<path class="st1" d="M96.5,442"/>
<polyline class="st0" points="88.5,423.5 88.5,489.5 116,462 "/>
<circle class="st1" cx="115.5" cy="462.5" r="9.4"/>
<circle class="st1" cx="88.5" cy="423.5" r="9.4"/>
<polyline class="st0" points="88,529.5 216.8,658.3 103,658.5 "/>
<line class="st0" x1="141" y1="687.5" x2="410" y2="687.5"/>
<line class="st0" x1="98.5" y1="597.5" x2="133" y2="632"/>
<circle class="st1" cx="98.5" cy="596.5" r="9.4"/>
<circle class="st1" cx="88.5" cy="530.5" r="9.4"/>
<circle class="st1" cx="131.5" cy="631.5" r="9.4"/>
<circle class="st1" cx="109.2" cy="658.3" r="9.4"/>
<circle class="st1" cx="407.2" cy="687.5" r="9.4"/>
<circle class="st1" cx="141.2" cy="687.5" r="9.4"/>
<circle class="st1" cx="47.5" cy="368.5" r="9.4"/>
<circle class="st1" cx="520.5" cy="659.5" r="9.4"/>
<circle class="st1" cx="547.5" cy="639.5" r="9.4"/>
<circle class="st1" cx="575.5" cy="609.5" r="9.4"/>
<line class="st0" x1="627.5" y1="526.5" x2="701.5" y2="452.5"/>
<circle class="st1" cx="628.5" cy="524.5" r="9.4"/>
<line class="st0" x1="627.5" y1="566.5" x2="701.5" y2="492.5"/>
<circle class="st1" cx="628.5" cy="564.5" r="9.4"/>
<line class="st0" x1="627.5" y1="606.5" x2="701.5" y2="532.5"/>
<circle class="st1" cx="628.5" cy="604.5" r="9.4"/>
<line class="st0" x1="627.5" y1="646.5" x2="701.5" y2="572.5"/>
<circle class="st1" cx="628.5" cy="644.5" r="9.4"/>
<line class="st0" x1="627.5" y1="686.5" x2="701.5" y2="612.5"/>
<circle class="st1" cx="628.5" cy="684.5" r="9.4"/>
<line class="st0" x1="-6.5" y1="421.5" x2="19.5" y2="395.5"/>
<path class="st0" d="M-6.5,421.5"/>
<line class="st0" x1="-6.5" y1="461.5" x2="19.5" y2="435.5"/>
<path class="st0" d="M-6.5,461.5"/>
<line class="st0" x1="-8.5" y1="503.5" x2="19.5" y2="475.5"/>
<path class="st0" d="M-8.5,503.5"/>
<line class="st0" x1="-6.5" y1="541.5" x2="19.5" y2="515.5"/>
<path class="st0" d="M-6.5,541.5"/>
<line class="st0" x1="-7.5" y1="582.5" x2="19.5" y2="555.5"/>
<path class="st0" d="M-7.5,582.5"/>
<line class="st0" x1="-5.5" y1="620.5" x2="19.5" y2="595.5"/>
<path class="st0" d="M4.5,637.5"/>
<polyline class="st0" points="59.5,641.5 18.5,682.5 73.5,682.5 "/>
<path class="st1" d="M85,328"/>
<circle class="st1" cx="38" cy="282" r="9.4"/>
<line class="st1" x1="684.5" y1="39.5" x2="684.5" y2="321.5"/>
<circle class="st1" cx="684.5" cy="320.5" r="9.4"/>
<circle class="st1" cx="684.5" cy="37.5" r="9.4"/>
<polyline class="st1" points="16.5,13.5 16.5,49.5 40.5,25.5 "/>
<circle class="st1" cx="39.5" cy="27.5" r="9.4"/>
<circle class="st1" cx="17.5" cy="15.5" r="9.4"/>
<circle class="st1" cx="54.5" cy="641.5" r="9.4"/>
<circle class="st1" cx="71.5" cy="681.5" r="9.4"/>
</svg>
