<?xml version="1.0" encoding="utf-8"?>
<!-- Generator: Adobe Illustrator 22.1.0, SVG Export Plug-In . SVG Version: 6.00 Build 0)  -->
<svg version="1.1" id="Layer_1" xmlns="http://www.w3.org/2000/svg" xmlns:xlink="http://www.w3.org/1999/xlink" x="0px" y="0px"
	 viewBox="0 0 1000 1000" style="enable-background:new 0 0 1000 1000;" xml:space="preserve">
<style type="text/css">
	.st0{fill:none;stroke:#406DE9;stroke-width:10;stroke-linecap:round;stroke-miterlimit:10;}
	.st1{fill:#D8E1FA;stroke:#406DE9;stroke-width:10;stroke-linecap:round;stroke-linejoin:round;stroke-miterlimit:10;}
	.st2{fill:none;stroke:#406DE9;stroke-width:10;stroke-linecap:round;stroke-linejoin:round;stroke-miterlimit:10;}
	.st3{fill:#D8E1FA;stroke:#406DE9;stroke-width:10;stroke-linecap:round;stroke-miterlimit:10;}
	.st4{fill:#D8E1FA;stroke:#406DE9;stroke-width:8;stroke-miterlimit:10;}
	.st5{fill:none;stroke:#406DE9;stroke-width:8;stroke-miterlimit:10;}
	.st6{fill:#FFFFFF;stroke:#406DE9;stroke-width:10;stroke-miterlimit:10;}
	.st7{opacity:0.2;}
	.st8{fill:#406DE9;}
	.st9{opacity:0.2;fill:#406DE9;}
	.st10{fill:none;stroke:#406DE9;stroke-width:10;stroke-miterlimit:10;}
	.st11{opacity:0.2;fill:#0D4094;}
	.st12{fill:none;stroke:#0D4094;stroke-width:10;stroke-miterlimit:10;}
	.st13{fill:none;stroke:#0D4094;stroke-width:10;stroke-linecap:round;stroke-miterlimit:10;}
	.st14{fill:#D8E1FA;stroke:#406DE9;stroke-width:8;stroke-linecap:round;stroke-linejoin:round;stroke-miterlimit:10;}
	.st15{fill:none;stroke:#406DE9;stroke-width:8;stroke-linecap:round;stroke-linejoin:round;stroke-miterlimit:10;}
	.st16{fill:#D8E1FA;stroke:#406DE9;stroke-width:10;stroke-miterlimit:10;}
	.st17{fill:#0D4094;stroke:#D8E1FA;stroke-width:10;stroke-linecap:round;stroke-miterlimit:10;}
	.st18{fill:#0D4094;stroke:#D8E1FA;stroke-width:5;stroke-linecap:round;stroke-miterlimit:10;}
	.st19{fill:#D8E1FA;}
</style>
<g>
	<path class="st0" d="M119.8,643c0,0,226.1-188.9,374.2-88.9"/>
	<g>
		<polygon class="st1" points="580.6,501.2 620.2,563.9 620.2,608.6 600.8,635.5 524.6,635.5 488.8,587 		"/>
		<polyline class="st2" points="580.6,501.2 580.6,568.3 598.5,587 620.2,568.3 		"/>
		<polyline class="st2" points="580.6,568.3 554.5,587 488.8,587 		"/>
		<polyline class="st2" points="554.5,587 555.2,607.1 524.6,635.5 		"/>
		<polyline class="st2" points="600.8,587 600.8,610.9 620.2,610.9 		"/>
		<polyline class="st2" points="600.8,610.9 580.6,620.6 587.6,635.5 		"/>
		<line class="st2" x1="580.6" y1="622.8" x2="555.2" y2="610.9"/>
	</g>
	<path class="st3" d="M442.4,649.4l-3.3,4.1c-3.3,4.1-9.3,4.7-13.4,1.4l-42.8-34.6c-4.1-3.3-4.7-9.3-1.4-13.4l3.3-4.1
		c3.3-4.1,9.3-4.7,13.4-1.4l42.8,34.6C445,639.3,445.6,645.3,442.4,649.4z"/>
	<path class="st3" d="M651.1,657.2l-2.4-4.7c-2.4-4.7-0.5-10.4,4.2-12.8L702,615c4.7-2.4,10.4-0.5,12.8,4.2l2.4,4.7
		c2.4,4.7,0.5,10.4-4.2,12.8l-49.1,24.8C659.2,663.7,653.4,661.8,651.1,657.2z"/>
	<path class="st3" d="M639.4,659.4l-3.3,4.1c-3.3,4.1-9.3,4.7-13.4,1.4l-42.8-34.6c-4.1-3.3-4.7-9.3-1.4-13.4l3.3-4.1
		c3.3-4.1,9.3-4.7,13.4-1.4l42.8,34.6C642,649.3,642.6,655.3,639.4,659.4z"/>
	<path class="st3" d="M805.1,657.2l-2.4-4.7c-2.4-4.7-0.5-10.4,4.2-12.8L856,615c4.7-2.4,10.4-0.5,12.8,4.2l2.4,4.7
		c2.4,4.7,0.5,10.4-4.2,12.8l-49.1,24.8C813.2,663.7,807.4,661.8,805.1,657.2z"/>
	<path class="st3" d="M355.5,632.1l1.9-4.9c1.9-4.9,7.4-7.3,12.3-5.4l51.2,20c4.9,1.9,7.3,7.4,5.4,12.3l-1.9,4.9
		c-1.9,4.9-7.4,7.3-12.3,5.4l-51.2-20C356,642.5,353.6,637,355.5,632.1z"/>
	<g>
		<polygon class="st4" points="141.6,554.9 109.8,644.5 149.5,675.2 223.3,675.2 244.8,651.3 212.5,568 177.3,549.2 		"/>
		<polyline class="st5" points="141.6,554.9 169.9,581 189.8,590.6 212.5,568 		"/>
		<polyline class="st5" points="169.9,581 159.7,629.8 109.8,646.8 		"/>
		<polyline class="st5" points="150.1,675.2 159.7,629.8 214.2,623 223.8,675.1 		"/>
		<line class="st5" x1="214.2" y1="623" x2="189.8" y2="590.6"/>
	</g>
	<path class="st3" d="M283.5,668.2l-3.3-4.1c-3.2-4.1-2.5-10.1,1.6-13.3l43.1-34.1c4.1-3.2,10.1-2.5,13.3,1.6l3.3,4.1
		c3.2,4.1,2.5,10.1-1.6,13.3l-43.1,34.1C292.8,673,286.8,672.3,283.5,668.2z"/>
	<g>
		<path class="st6" d="M884.3,704.7H99.7c-6.6,0-12-5.4-12-12V655c0-6.6,5.4-12,12-12h784.5c6.6,0,12,5.4,12,12v37.7
			C896.3,699.3,890.9,704.7,884.3,704.7z"/>
		<path class="st6" d="M884.9,766.8H100.4c-6.6,0-12-5.4-12-12v-37.7c0-6.6,5.4-12,12-12h784.5c6.6,0,12,5.4,12,12v37.7
			C896.9,761.4,891.5,766.8,884.9,766.8z"/>
	</g>
	<circle class="st6" cx="492.3" cy="702.2" r="101.8"/>
	<g class="st7">
		<path class="st8" d="M475,704.4c-5.4-4.5-8.9-11.2-8.9-18.8c0-13.4,10.9-24.3,24.3-24.3s24.3,10.9,24.3,24.3
			c0,7.6-3.5,14.3-8.9,18.8"/>
		<path class="st8" d="M475,704.4l-12.6,36.8c-1.5,4.5,1.8,9.1,6.5,9.1h46.9c5,0,8.3-5.1,6.3-9.7l-16.2-36.2"/>
	</g>
	<circle class="st9" cx="422.5" cy="706.4" r="13.4"/>
	<circle class="st9" cx="562.7" cy="706.4" r="13.4"/>
	<g>
		<path class="st10" d="M475,704.4c-5.4-4.5-8.9-11.2-8.9-18.8c0-13.4,10.9-24.3,24.3-24.3s24.3,10.9,24.3,24.3
			c0,7.6-3.5,14.3-8.9,18.8"/>
		<path class="st0" d="M475,704.4l-12.6,36.8c-1.5,4.5,1.8,9.1,6.5,9.1h46.9c5,0,8.3-5.1,6.3-9.7l-16.2-36.2"/>
	</g>
	<g>
		<polyline class="st10" points="136.2,762.5 169.2,909.3 230.2,909.3 203.6,762.5 		"/>
		<polyline class="st10" points="848.4,762.5 815.4,909.3 754.5,909.3 781,762.5 		"/>
		<line class="st10" x1="217.1" y1="844.4" x2="766.6" y2="844.4"/>
		<path class="st10" d="M830.3,977.2H158c-6.6,0-12-5.4-12-12v-40.5c0-6.6,5.4-12,12-12h672.3c6.6,0,12,5.4,12,12v40.5
			C842.3,971.8,836.9,977.2,830.3,977.2z"/>
	</g>
	<path class="st9" d="M160.9,766.8l23.2,105.3c1.8,7.9,8.8,13.6,16.9,13.6h24.8v27H164l-27.8-145.9H160.9z"/>
	<path class="st9" d="M821.9,766.8l-23.2,105.3c-1.8,7.9-8.8,13.6-16.9,13.6h-24.8v27h61.9l27.8-145.9H821.9z"/>
	<path class="st11" d="M269.1,498.9"/>
	<polygon class="st9" points="210.3,825.9 776.1,825.9 766.4,844.2 213.3,845.5 	"/>
	<polygon class="st9" points="226.2,893 756.6,895.5 782.2,911.3 229.1,912.5 	"/>
	<path class="st9" d="M164,912.5V943c0,8.1,6.6,14.7,14.7,14.7h634c8.1,0,14.7-6.6,14.7-14.7v-30.4l13.5,8.5v47.8l-18.4,8.3H164
		l-17.9-8.5v-48.8L164,912.5z"/>
	<path class="st12" d="M293.2,544"/>
	<path class="st10" d="M875.8,643c0,0,17.4-72-66.3-77.4c-50.4-3.3-94.8,25.1-145.7-31.4c-144-160-371,10-371,10"/>
	<path class="st13" d="M532,466.6"/>
	<path class="st0" d="M448.6,472.7c0,0,73.4,3.4,83.4,23.4"/>
	<path class="st3" d="M91.9,967.8v-5.2c0-5.2,4.3-9.5,9.5-9.5h55c5.2,0,9.5,4.3,9.5,9.5v5.2c0,5.2-4.3,9.5-9.5,9.5h-55
		C96.2,977.3,91.9,973,91.9,967.8z"/>
	<path class="st3" d="M80.9,943.8v-5.2c0-5.2,4.3-9.5,9.5-9.5h55c5.2,0,9.5,4.3,9.5,9.5v5.2c0,5.2-4.3,9.5-9.5,9.5h-55
		C85.2,953.3,80.9,949,80.9,943.8z"/>
	<path class="st3" d="M88.9,920.8v-5.2c0-5.2,4.3-9.5,9.5-9.5h55c5.2,0,9.5,4.3,9.5,9.5v5.2c0,5.2-4.3,9.5-9.5,9.5h-55
		C93.2,930.3,88.9,926,88.9,920.8z"/>
	<path class="st3" d="M72.9,895.8v-5.2c0-5.2,4.3-9.5,9.5-9.5h55c5.2,0,9.5,4.3,9.5,9.5v5.2c0,5.2-4.3,9.5-9.5,9.5h-55
		C77.2,905.3,72.9,901,72.9,895.8z"/>
	<path class="st3" d="M43.9,980.6l-4.9-1.9c-4.9-1.9-7.3-7.4-5.4-12.3l20-51.2c1.9-4.9,7.4-7.3,12.3-5.4l4.9,1.9
		c4.9,1.9,7.3,7.4,5.4,12.3l-20,51.2C54.3,980.1,48.8,982.5,43.9,980.6z"/>
	<g>
		<polygon class="st14" points="690,501.4 652.5,517.5 690.4,607.2 780.3,568.7 764.4,529.1 		"/>
		<polyline class="st15" points="764.4,529.1 736.6,551.2 690.4,607.2 695.6,534.8 690,501.4 		"/>
		<line class="st15" x1="652.5" y1="517.5" x2="780.3" y2="568.7"/>
		<polyline class="st15" points="695.6,534.8 726.8,516.2 736.6,551.2 		"/>
	</g>
	<g>
		<polygon class="st16" points="461.7,539.9 384.3,517.7 366.7,464.9 394.5,442.3 445.7,435.9 482.9,459.5 492.3,513.7 		"/>
		<polyline class="st10" points="492.3,513.7 407.1,498.1 384.3,517.7 		"/>
		<polyline class="st10" points="461.7,539.9 450.3,505.7 461.9,466.5 482.9,459.5 		"/>
		<polyline class="st10" points="461.9,466.5 442.5,454.3 397.5,469.3 407.1,498.1 		"/>
		<line class="st10" x1="397.5" y1="469.3" x2="366.7" y2="464.9"/>
		<line class="st10" x1="445.7" y1="435.9" x2="442.5" y2="454.3"/>
	</g>
	<path class="st3" d="M223.1,606.3l2.2-4.8c2.2-4.8,7.8-6.9,12.6-4.7l50.1,22.6c4.8,2.2,6.9,7.8,4.7,12.6l-2.2,4.8
		c-2.2,4.8-7.8,6.9-12.6,4.7l-50.1-22.6C223.1,616.7,221,611.1,223.1,606.3z"/>
	<path class="st3" d="M248.9,602.8v-5.2c0-5.2,4.3-9.5,9.5-9.5h55c5.2,0,9.5,4.3,9.5,9.5v5.2c0,5.2-4.3,9.5-9.5,9.5h-55
		C253.2,612.3,248.9,608,248.9,602.8z"/>
	<path class="st3" d="M218.5,555.1l1.9-4.9c1.9-4.9,7.4-7.3,12.3-5.4l51.2,20c4.9,1.9,7.3,7.4,5.4,12.3l-1.9,4.9
		c-1.9,4.9-7.4,7.3-12.3,5.4l-51.2-20C219,565.5,216.6,560,218.5,555.1z"/>
	<path class="st3" d="M562.1,506.2l-2.4-4.7c-2.4-4.7-0.5-10.4,4.2-12.8L613,464c4.7-2.4,10.4-0.5,12.8,4.2l2.4,4.7
		c2.4,4.7,0.5,10.4-4.2,12.8l-49.1,24.8C570.2,512.7,564.4,510.8,562.1,506.2z"/>
	<g>
		<polygon class="st14" points="270.6,519.4 254.7,544.4 313.9,582.5 352,522.9 326.4,505.7 		"/>
		<polyline class="st15" points="326.4,505.7 318.8,530.2 313.9,582.5 287.5,537.1 270.6,519.4 		"/>
		<line class="st15" x1="254.7" y1="544.4" x2="352" y2="522.9"/>
		<polyline class="st15" points="287.5,537.1 298.7,513.3 318.8,530.2 		"/>
	</g>
	<line class="st17" x1="661.8" y1="448.2" x2="673.8" y2="484.2"/>
	<line class="st17" x1="721.8" y1="445.2" x2="711.8" y2="481.2"/>
	<line class="st17" x1="756.8" y1="503.2" x2="775.8" y2="465.2"/>
	<line class="st17" x1="784.8" y1="528.2" x2="818.8" y2="499.2"/>
	<path class="st3" d="M531.1,495.2l-2.4-4.7c-2.4-4.7-0.5-10.4,4.2-12.8L582,453c4.7-2.4,10.4-0.5,12.8,4.2l2.4,4.7
		c2.4,4.7,0.5,10.4-4.2,12.8l-49.1,24.8C539.2,501.7,533.4,499.8,531.1,495.2z"/>
	<g>
		<line class="st18" x1="268.8" y1="437.2" x2="268.8" y2="455.3"/>
		<line class="st18" x1="268.8" y1="479" x2="268.8" y2="497.2"/>
		<line class="st18" x1="238.8" y1="467.2" x2="256.9" y2="467.2"/>
		<line class="st18" x1="280.7" y1="467.2" x2="298.8" y2="467.2"/>
		<line class="st18" x1="247.6" y1="446" x2="260.4" y2="458.8"/>
		<line class="st18" x1="277.2" y1="475.6" x2="290" y2="488.4"/>
		<line class="st18" x1="290" y1="446" x2="277.2" y2="458.8"/>
		<line class="st18" x1="260.4" y1="475.6" x2="247.6" y2="488.4"/>
	</g>
	<g>
		<line class="st18" x1="959.8" y1="774.2" x2="959.8" y2="792.3"/>
		<line class="st18" x1="959.8" y1="816" x2="959.8" y2="834.2"/>
		<line class="st18" x1="929.8" y1="804.2" x2="947.9" y2="804.2"/>
		<line class="st18" x1="971.7" y1="804.2" x2="989.8" y2="804.2"/>
		<line class="st18" x1="938.6" y1="783" x2="951.4" y2="795.8"/>
		<line class="st18" x1="968.2" y1="812.6" x2="981" y2="825.4"/>
		<line class="st18" x1="981" y1="783" x2="968.2" y2="795.8"/>
		<line class="st18" x1="951.4" y1="812.6" x2="938.6" y2="825.4"/>
	</g>
	<g>
		<line class="st18" x1="54.8" y1="810.2" x2="54.8" y2="828.3"/>
		<line class="st18" x1="54.8" y1="852" x2="54.8" y2="870.2"/>
		<line class="st18" x1="24.8" y1="840.2" x2="42.9" y2="840.2"/>
		<line class="st18" x1="66.7" y1="840.2" x2="84.8" y2="840.2"/>
		<line class="st18" x1="33.6" y1="819" x2="46.4" y2="831.8"/>
		<line class="st18" x1="63.2" y1="848.6" x2="76" y2="861.4"/>
		<line class="st18" x1="76" y1="819" x2="63.2" y2="831.8"/>
		<line class="st18" x1="46.4" y1="848.6" x2="33.6" y2="861.4"/>
	</g>
	<g>
		<path class="st19" d="M61.9,271.8c2.1-0.6,4.3-0.8,6.5-0.7c2.2,0.1,4.3,0.4,6.4,1.2c2,0.7,3.9,1.8,5.7,3.3
			c1.8,1.5,3.3,3.3,4.6,5.6l-6.5,2.3c-3.7-4.8-8.5-6.6-14.5-5.4l8.1,22.6c2.7,0.1,5.3,0.3,7.9,0.6c2.6,0.3,5.1,0.8,7.3,1.5
			c2.3,0.7,4.3,1.9,6.1,3.3c1.8,1.5,3.1,3.5,4,6.1c1.1,3,1.4,5.7,1,8.2c-0.4,2.5-1.2,4.8-2.5,6.8c-1.3,2.1-2.9,3.9-4.8,5.5
			c-1.9,1.6-4,2.9-6.2,3.9l3.8,10.6l-6.3,2.3l-3.9-10.8c-5,0.8-9.7,0-14.3-2.5c-4.6-2.4-8.2-6.1-10.9-11.1l6.8-2.4
			c1.8,3.2,4.2,5.6,7,7.4c2.8,1.8,5.9,2.5,9.2,2.1l-8.8-24.5c-2.5-0.2-4.9-0.4-7.3-0.7c-2.4-0.3-4.6-0.9-6.7-1.7
			c-2.1-0.8-3.9-2-5.5-3.4s-2.8-3.4-3.7-5.8c-0.8-2.1-1-4.3-0.8-6.5c0.2-2.2,0.8-4.2,1.8-6.1c1-1.9,2.4-3.7,4.1-5.3
			c1.7-1.6,3.7-3,5.9-4l-2.5-6.9l6.3-2.3L61.9,271.8z M51.1,293.3c0.9,2.6,2.6,4.3,5.1,5.3c2.5,1,5.4,1.6,8.8,1.8l-7.2-20.1
			c-3,1.6-5,3.6-6.2,6C50.5,288.7,50.3,291,51.1,293.3z M91,314.7c-0.5-1.3-1.2-2.3-2.3-3.1c-1.1-0.8-2.4-1.5-3.9-2
			c-1.5-0.5-3.1-0.9-4.8-1.1c-1.7-0.2-3.4-0.4-5.2-0.6l8,22.3c3.6-1.7,6.2-4,7.6-6.9C91.8,320.3,92,317.5,91,314.7z"/>
	</g>
	<g>
		<path class="st19" d="M923.1,265.4c2.1,0.7,4.1,1.6,5.9,2.9c1.8,1.2,3.4,2.7,4.7,4.4c1.3,1.7,2.3,3.6,3,5.8c0.7,2.2,1,4.6,0.9,7.2
			l-6.7-1.5c-0.5-6.1-3.6-10.2-9.3-12.4l-5.3,23.4c2.2,1.5,4.3,3.1,6.4,4.7c2.1,1.6,3.8,3.4,5.4,5.2c1.5,1.9,2.6,3.9,3.3,6.1
			s0.7,4.6,0.1,7.3c-0.7,3.1-1.9,5.5-3.5,7.5c-1.7,1.9-3.6,3.4-5.8,4.4s-4.5,1.7-7,2c-2.5,0.3-4.9,0.3-7.3-0.1l-2.5,11l-6.5-1.5
			l2.6-11.2c-4.6-2-8.2-5.3-10.7-9.8c-2.6-4.5-3.6-9.6-3.2-15.3l7,1.6c-0.1,3.7,0.5,7,1.9,10c1.4,3,3.6,5.2,6.6,6.7l5.8-25.4
			c-2-1.5-3.9-3-5.7-4.5c-1.8-1.5-3.4-3.2-4.7-5c-1.3-1.8-2.2-3.7-2.8-5.8c-0.6-2.1-0.5-4.3,0-6.8c0.5-2.2,1.4-4.2,2.8-5.9
			c1.3-1.7,3-3.1,4.8-4.2s4-1.8,6.3-2.3c2.3-0.4,4.7-0.5,7.2-0.2l1.6-7.1l6.5,1.5L923.1,265.4z M902.4,277.7
			c-0.6,2.7-0.1,5.1,1.5,7.3c1.6,2.2,3.7,4.3,6.4,6.2l4.7-20.8c-3.4-0.2-6.2,0.4-8.4,1.7C904.3,273.5,902.9,275.4,902.4,277.7z
			 M924.5,317.2c0.3-1.3,0.2-2.6-0.3-3.9c-0.5-1.3-1.2-2.5-2.2-3.8c-1-1.2-2.1-2.4-3.4-3.6c-1.3-1.1-2.7-2.2-4.1-3.3l-5.3,23.1
			c4,0.5,7.4-0.1,10.1-1.8S923.8,320.1,924.5,317.2z"/>
	</g>
	<g>
		<path class="st19" d="M275.1,44.4c2.1,0.7,4.1,1.6,5.9,2.9c1.8,1.2,3.4,2.7,4.7,4.4c1.3,1.7,2.3,3.6,3,5.8c0.7,2.2,1,4.6,0.9,7.2
			l-6.7-1.5c-0.5-6.1-3.6-10.2-9.3-12.4l-5.3,23.4c2.2,1.5,4.3,3.1,6.4,4.7c2.1,1.6,3.8,3.4,5.4,5.2c1.5,1.9,2.6,3.9,3.3,6.1
			c0.7,2.2,0.7,4.6,0.1,7.3c-0.7,3.1-1.9,5.5-3.5,7.5c-1.7,1.9-3.6,3.4-5.8,4.4s-4.5,1.7-7,2c-2.5,0.3-4.9,0.3-7.3-0.1l-2.5,11
			l-6.5-1.5l2.6-11.2c-4.6-2-8.2-5.3-10.7-9.8c-2.6-4.5-3.6-9.6-3.2-15.3l7,1.6c-0.1,3.7,0.5,7,1.9,10c1.4,3,3.6,5.2,6.6,6.7
			l5.8-25.4c-2-1.5-3.9-3-5.7-4.5c-1.8-1.5-3.4-3.2-4.7-5c-1.3-1.8-2.2-3.7-2.8-5.8c-0.6-2.1-0.5-4.3,0-6.8c0.5-2.2,1.4-4.2,2.8-5.9
			c1.3-1.7,3-3.1,4.8-4.2c1.9-1.1,4-1.8,6.3-2.3c2.3-0.4,4.7-0.5,7.2-0.2l1.6-7.1l6.5,1.5L275.1,44.4z M254.4,56.7
			c-0.6,2.7-0.1,5.1,1.5,7.3c1.6,2.2,3.7,4.3,6.4,6.2l4.7-20.8c-3.4-0.2-6.2,0.4-8.4,1.7C256.3,52.5,254.9,54.4,254.4,56.7z
			 M276.5,96.2c0.3-1.3,0.2-2.6-0.3-3.9c-0.5-1.3-1.2-2.5-2.2-3.8c-1-1.2-2.1-2.4-3.4-3.6c-1.3-1.1-2.7-2.2-4.1-3.3l-5.3,23.1
			c4,0.5,7.4-0.1,10.1-1.8C274.1,101.4,275.8,99.1,276.5,96.2z"/>
	</g>
	<g>
		<path class="st19" d="M539.8,251.6c2.2-0.3,4.4-0.2,6.6,0.1c2.2,0.4,4.2,1,6.2,2c1.9,1,3.6,2.3,5.2,4c1.5,1.7,2.8,3.7,3.8,6.2
			l-6.8,1.4c-3-5.3-7.6-7.7-13.6-7.3l5,23.5c2.6,0.5,5.2,1,7.8,1.6c2.6,0.6,4.9,1.4,7.1,2.5s4,2.4,5.6,4.1c1.6,1.7,2.6,3.9,3.2,6.6
			c0.7,3.1,0.6,5.8-0.1,8.2c-0.7,2.4-1.8,4.6-3.4,6.4c-1.5,1.9-3.4,3.4-5.5,4.8c-2.1,1.3-4.4,2.3-6.7,3l2.3,11.1l-6.6,1.4l-2.4-11.2
			c-5,0.1-9.6-1.3-13.9-4.4c-4.2-3-7.3-7.2-9.3-12.5l7-1.5c1.4,3.4,3.4,6.1,5.9,8.3c2.5,2.1,5.5,3.2,8.8,3.3l-5.4-25.4
			c-2.4-0.5-4.8-1.1-7.1-1.7c-2.3-0.6-4.4-1.5-6.4-2.6c-1.9-1.1-3.6-2.5-5-4.1c-1.4-1.7-2.3-3.7-2.8-6.2c-0.5-2.2-0.5-4.4,0.1-6.5
			c0.5-2.1,1.4-4.1,2.6-5.8c1.3-1.8,2.9-3.3,4.8-4.7c1.9-1.4,4.1-2.4,6.4-3.2l-1.5-7.1l6.6-1.4L539.8,251.6z M526.3,271.5
			c0.6,2.7,2,4.7,4.4,6c2.4,1.3,5.2,2.3,8.4,3l-4.4-20.8c-3.2,1.2-5.5,2.9-6.9,5.1C526.3,266.8,525.8,269.1,526.3,271.5z M562.9,298
			c-0.3-1.3-0.9-2.4-1.8-3.4c-1-1-2.1-1.8-3.5-2.5c-1.4-0.7-3-1.3-4.6-1.8c-1.7-0.5-3.4-0.9-5.1-1.3l4.9,23.2
			c3.8-1.2,6.6-3.2,8.4-5.8C562.9,303.8,563.5,301,562.9,298z"/>
	</g>
	<g>
		<path class="st19" d="M709.1,27.4c2.1,0.7,4.1,1.6,5.9,2.9c1.8,1.2,3.4,2.7,4.7,4.4c1.3,1.7,2.3,3.6,3,5.8c0.7,2.2,1,4.6,0.9,7.2
			l-6.7-1.5c-0.5-6.1-3.6-10.2-9.3-12.4l-5.3,23.4c2.2,1.5,4.3,3.1,6.4,4.7c2.1,1.6,3.8,3.4,5.4,5.2c1.5,1.9,2.6,3.9,3.3,6.1
			s0.7,4.6,0.1,7.3c-0.7,3.1-1.9,5.5-3.5,7.5c-1.7,1.9-3.6,3.4-5.8,4.4s-4.5,1.7-7,2c-2.5,0.3-4.9,0.3-7.3-0.1l-2.5,11l-6.5-1.5
			l2.6-11.2c-4.6-2-8.2-5.3-10.7-9.8c-2.6-4.5-3.6-9.6-3.2-15.3l7,1.6c-0.1,3.7,0.5,7,1.9,10c1.4,3,3.6,5.2,6.6,6.7l5.8-25.4
			c-2-1.5-3.9-3-5.7-4.5c-1.8-1.5-3.4-3.2-4.7-5c-1.3-1.8-2.2-3.7-2.8-5.8c-0.6-2.1-0.5-4.3,0-6.8c0.5-2.2,1.4-4.2,2.8-5.9
			c1.3-1.7,3-3.1,4.8-4.2s4-1.8,6.3-2.3c2.3-0.4,4.7-0.5,7.2-0.2l1.6-7.1l6.5,1.5L709.1,27.4z M688.4,39.7c-0.6,2.7-0.1,5.1,1.5,7.3
			c1.6,2.2,3.7,4.3,6.4,6.2l4.7-20.8c-3.4-0.2-6.2,0.4-8.4,1.7C690.3,35.5,688.9,37.4,688.4,39.7z M710.5,79.2
			c0.3-1.3,0.2-2.6-0.3-3.9c-0.5-1.3-1.2-2.5-2.2-3.8c-1-1.2-2.1-2.4-3.4-3.6c-1.3-1.1-2.7-2.2-4.1-3.3l-5.3,23.1
			c4,0.5,7.4-0.1,10.1-1.8S709.8,82.1,710.5,79.2z"/>
	</g>
	<line class="st17" x1="334" y1="402.8" x2="361" y2="438.8"/>
	<line class="st17" x1="520.1" y1="400.9" x2="496.7" y2="433.4"/>
	<line class="st17" x1="399.8" y1="375.2" x2="405.6" y2="419.7"/>
	<line class="st17" x1="461.8" y1="379.2" x2="452.2" y2="417.5"/>
	<line class="st17" x1="208.9" y1="510.6" x2="197" y2="541.2"/>
	<line class="st17" x1="152.2" y1="502" x2="157.8" y2="533.7"/>
	<line class="st17" x1="94.8" y1="528.2" x2="126.5" y2="552.4"/>
	<path class="st3" d="M854,971.8v-5.2c0-5.2-4.3-9.5-9.5-9.5h-55c-5.2,0-9.5,4.3-9.5,9.5v5.2c0,5.2,4.3,9.5,9.5,9.5h55
		C849.7,981.3,854,977,854,971.8z"/>
	<path class="st3" d="M865,947.8v-5.2c0-5.2-4.3-9.5-9.5-9.5h-55c-5.2,0-9.5,4.3-9.5,9.5v5.2c0,5.2,4.3,9.5,9.5,9.5h55
		C860.7,957.3,865,953,865,947.8z"/>
	<path class="st3" d="M857,924.8v-5.2c0-5.2-4.3-9.5-9.5-9.5h-55c-5.2,0-9.5,4.3-9.5,9.5v5.2c0,5.2,4.3,9.5,9.5,9.5h55
		C852.7,934.3,857,930,857,924.8z"/>
	<path class="st3" d="M873,899.8v-5.2c0-5.2-4.3-9.5-9.5-9.5h-55c-5.2,0-9.5,4.3-9.5,9.5v5.2c0,5.2,4.3,9.5,9.5,9.5h55
		C868.7,909.3,873,905,873,899.8z"/>
	<path class="st3" d="M898,988.6l4.9-1.9c4.9-1.9,7.3-7.4,5.4-12.3l-20-51.2c-1.9-4.9-7.4-7.3-12.3-5.4l-4.9,1.9
		c-4.9,1.9-7.3,7.4-5.4,12.3l20,51.2C887.6,988.1,893.1,990.5,898,988.6z"/>
	<path class="st3" d="M749.9,986.6l-4.9-1.9c-4.9-1.9-7.3-7.4-5.4-12.3l20-51.2c1.9-4.9,7.4-7.3,12.3-5.4l4.9,1.9
		c4.9,1.9,7.3,7.4,5.4,12.3l-20,51.2C760.3,986.1,754.8,988.5,749.9,986.6z"/>
</g>
</svg>
