<?xml version="1.0" encoding="utf-8"?>
<!-- Generator: Adobe Illustrator 22.1.0, SVG Export Plug-In . SVG Version: 6.00 Build 0)  -->
<svg version="1.1" id="Layer_1" xmlns="http://www.w3.org/2000/svg" xmlns:xlink="http://www.w3.org/1999/xlink" x="0px" y="0px"
	 viewBox="0 0 1000 301" style="enable-background:new 0 0 1000 301;" xml:space="preserve">
<style type="text/css">
	.st0{fill:url(#SVGID_1_);}
	.st1{opacity:0.25;}
	.st2{fill:none;stroke:#FFFFFF;stroke-width:5;stroke-linecap:round;stroke-linejoin:round;stroke-miterlimit:10;}
	.st3{opacity:0.25;fill:none;stroke:#FFFFFF;stroke-width:5;stroke-linecap:round;stroke-linejoin:round;stroke-miterlimit:10;}
</style>
<linearGradient id="SVGID_1_" gradientUnits="userSpaceOnUse" x1="-7" y1="149" x2="1220" y2="149">
	<stop  offset="0" style="stop-color:#E94057"/>
	<stop  offset="1" style="stop-color:#F27121"/>
</linearGradient>
<path class="st0" d="M-7-3.8L-5,303l130.6-84.8c84.7-55,182-76.5,277.7-61.4l167.7,29c85.4,14.7,172.5,5,254-28.5L1220-5L-7-3.8z"/>
<g class="st1">
	<line class="st2" x1="-3.3" y1="213.4" x2="13.3" y2="239.6"/>
	<line class="st2" x1="-8.1" y1="234.8" x2="18.1" y2="218.2"/>
</g>
<g class="st1">
	<line class="st2" x1="559.7" y1="98.4" x2="576.3" y2="124.6"/>
	<line class="st2" x1="554.9" y1="119.8" x2="581.1" y2="103.2"/>
</g>
<circle class="st3" cx="257" cy="111" r="14.5"/>
<circle class="st3" cx="891" cy="6" r="14.5"/>
<rect x="780.5" y="152.5" transform="matrix(0.7431 0.6691 -0.6691 0.7431 313.6296 -488.0333)" class="st3" width="24" height="24"/>
<rect x="378.5" y="-14.5" transform="matrix(0.7431 0.6691 -0.6691 0.7431 98.6291 -261.9376)" class="st3" width="24" height="24"/>
<rect x="32.5" y="31.5" transform="matrix(-0.3623 0.9321 -0.9321 -0.3623 101.1671 17.7835)" class="st3" width="24" height="24"/>
</svg>
