<?xml version="1.0" encoding="utf-8"?>
<!-- Generator: Adobe Illustrator 22.1.0, SVG Export Plug-In . SVG Version: 6.00 Build 0)  -->
<svg version="1.1" id="Layer_1" xmlns="http://www.w3.org/2000/svg" xmlns:xlink="http://www.w3.org/1999/xlink" x="0px" y="0px"
	 viewBox="0 0 646 712" style="enable-background:new 0 0 646 712;" xml:space="preserve">
<style type="text/css">
	.st0{
    fill:none;stroke:#FFFFFF;stroke-width:3;stroke-miterlimit:10;
    stroke-dasharray: 30;
    animation: dash 150s linear infinite;
  }
	.st1{fill:#FFFFFF;stroke:#FFFFFF;stroke-width:3;stroke-miterlimit:10;}


  @keyframes dash {
    to {
      stroke-dashoffset: 10000;
    }
  }

</style>
<g>
	<polyline class="st0" points="211.3,16.8 211.3,72.8 319.8,181.3 319.8,307.8 	"/>
	<polyline class="st0" points="241.3,16.8 241.3,72.8 349.8,181.3 349.8,307.8 	"/>
	<polyline class="st0" points="271.3,16.8 271.3,72.8 379.8,181.3 379.8,307.8 	"/>
	<polyline class="st0" points="301.3,16.8 301.3,72.8 409.8,181.3 409.8,307.8 	"/>
	<polyline class="st0" points="290.3,191.8 290.3,405.8 107.3,405.8 	"/>
	<polyline class="st0" points="260.3,161.8 260.3,375.8 77.3,375.8 	"/>
	<polyline class="st0" points="230.3,131.8 230.3,345.8 47.3,345.8 	"/>
	<polyline class="st0" points="200.3,101.8 200.3,315.8 17.3,315.8 	"/>
	<polyline class="st0" points="567.3,695.8 512.2,695.8 382.2,565.8 382.2,396.5 318.3,396.5 	"/>
	<polyline class="st0" points="597.3,665.8 542.2,665.8 412.2,535.8 412.2,366.5 412.3,453.8 412.3,367.8 319.3,367.8 	"/>
	<polyline class="st0" points="627.3,635.8 572.2,635.8 442.2,505.8 442.2,336.5 442.3,423.8 442.3,337.8 319.8,337.8 	"/>
	<line class="st0" x1="440.3" y1="304.8" x2="527.3" y2="304.8"/>
	<line class="st0" x1="440.3" y1="274.8" x2="527.3" y2="274.8"/>
	<line class="st0" x1="440.3" y1="244.8" x2="527.3" y2="244.8"/>
	<line class="st0" x1="440.3" y1="214.8" x2="527.3" y2="214.8"/>
	<line class="st0" x1="440.3" y1="184.8" x2="527.3" y2="184.8"/>
	<polyline class="st0" points="363.3,464.8 363.3,423.8 303.3,423.8 303.3,461.3 	"/>
	<line class="st0" x1="333.3" y1="449.3" x2="333.3" y2="501.3"/>
	<path class="st0" d="M546.3,437.8"/>
	<polyline class="st0" points="480.3,485.8 525.3,525.8 525.3,338.8 481.3,339.8 481.3,400.3 	"/>
	<line class="st0" x1="466.8" y1="441.8" x2="501.8" y2="441.8"/>
	<circle class="st1" cx="211.8" cy="18.3" r="9.4"/>
	<circle class="st1" cx="241.8" cy="18.3" r="9.4"/>
	<circle class="st1" cx="271.8" cy="18.3" r="9.4"/>
	<circle class="st1" cx="301.8" cy="18.3" r="9.4"/>
	<circle class="st1" cx="200.8" cy="102.3" r="9.4"/>
	<circle class="st1" cx="230.8" cy="132.3" r="9.4"/>
	<circle class="st1" cx="260.8" cy="162.3" r="9.4"/>
	<circle class="st1" cx="290.8" cy="192.3" r="9.4"/>
	<circle class="st1" cx="15.8" cy="315.3" r="9.4"/>
	<circle class="st1" cx="45.8" cy="345.3" r="9.4"/>
	<circle class="st1" cx="75.8" cy="375.3" r="9.4"/>
	<circle class="st1" cx="105.8" cy="405.3" r="9.4"/>
	<circle class="st1" cx="319.8" cy="306.3" r="9.4"/>
	<circle class="st1" cx="349.8" cy="306.3" r="9.4"/>
	<circle class="st1" cx="379.8" cy="306.3" r="9.4"/>
	<circle class="st1" cx="409.8" cy="306.3" r="9.4"/>
	<circle class="st1" cx="440.8" cy="184.8" r="9.4"/>
	<circle class="st1" cx="440.8" cy="214.8" r="9.4"/>
	<circle class="st1" cx="440.8" cy="244.8" r="9.4"/>
	<circle class="st1" cx="440.8" cy="274.8" r="9.4"/>
	<circle class="st1" cx="440.8" cy="304.8" r="9.4"/>
	<circle class="st1" cx="525.8" cy="184.8" r="9.4"/>
	<circle class="st1" cx="525.8" cy="214.8" r="9.4"/>
	<circle class="st1" cx="525.8" cy="244.8" r="9.4"/>
	<circle class="st1" cx="525.8" cy="274.8" r="9.4"/>
	<circle class="st1" cx="525.8" cy="304.8" r="9.4"/>
	<circle class="st1" cx="319.8" cy="337.8" r="9.4"/>
	<circle class="st1" cx="319.8" cy="367.8" r="9.4"/>
	<circle class="st1" cx="319.8" cy="397.8" r="9.4"/>
	<circle class="st1" cx="481.8" cy="400.8" r="9.4"/>
	<circle class="st1" cx="481.8" cy="484.8" r="9.4"/>
	<circle class="st1" cx="465.8" cy="441.8" r="9.4"/>
	<circle class="st1" cx="504.8" cy="441.8" r="9.4"/>
	<circle class="st1" cx="362.8" cy="464.8" r="9.4"/>
	<circle class="st1" cx="302.8" cy="464.8" r="9.4"/>
	<circle class="st1" cx="333.3" cy="448.8" r="9.4"/>
	<circle class="st1" cx="333.3" cy="498.8" r="9.4"/>
	<circle class="st1" cx="626.3" cy="635.8" r="9.4"/>
	<circle class="st1" cx="596.3" cy="665.8" r="9.4"/>
	<circle class="st1" cx="566.3" cy="695.8" r="9.4"/>
</g>
</svg>
