<?xml version="1.0" encoding="utf-8"?>
<!-- Generator: Adobe Illustrator 22.1.0, SVG Export Plug-In . SVG Version: 6.00 Build 0)  -->
<svg version="1.1" id="Layer_1" xmlns="http://www.w3.org/2000/svg" xmlns:xlink="http://www.w3.org/1999/xlink" x="0px" y="0px"
	 viewBox="0 0 1339.1 1176" style="enable-background:new 0 0 1339.1 1176;" xml:space="preserve">
<style type="text/css">
	.st0{fill:url(#container_1_);opacity: .6}
	.st1{fill:#234975;}
	.st2{fill:#FFDA69;}
	.st3{opacity:0.25;}
	.st4{opacity:0.5;fill:#FFFFFF;}
	.st5{fill:none;stroke:#234975;stroke-width:10;stroke-linecap:round;stroke-linejoin:round;stroke-miterlimit:10;}
	.st6{opacity:0.15;}
	.st7{fill:#FFFFFF;}
	.st8{opacity:0.2;fill:#FFFFFF;}
	.st9{opacity:0.5;}
	.st10{fill:#a47fef;}
	.st11{fill:#4DD0E1;}
	.st12{fill:#FFB74D;}
	.st13{opacity:0.3;fill:#FFFFFF;}
	.st14{fill:#81C784;}
	.st15{fill:none;stroke:#234975;stroke-width:5;stroke-linecap:round;stroke-linejoin:round;stroke-miterlimit:10;}
	.st16{fill:#D7E6EF;stroke:#234975;stroke-width:10;stroke-linecap:round;stroke-linejoin:round;stroke-miterlimit:10;}
	.st17{opacity:0.15;fill:#FFFFFF;}
	.st18{opacity:0.7;fill:#FFFFFF;}
	.st19{fill:#9E9E9E;}
	.st20{fill:none;stroke:#234975;stroke-width:30;stroke-linecap:round;stroke-linejoin:round;stroke-miterlimit:10;stroke-dasharray:5,100;}
	.st21{opacity:0.1;}
	.st22{fill:#c8b2f5;}
	.st23{fill:#E57373;}


		#reflection1{
			animation: reflect 5s infinite;
		}
		#reflection2{
			animation: reflect 5s infinite;
		}

		@keyframes reflect{
			0%{
				transform: translate(0px, 0px)
			}
			100%{
				transform: translate(500px, 500px)
			}
		}

	#bubbleHose_1_ {
	  stroke-dasharray: 5,100;
	  stroke-dashoffset: 4000;
	  animation: dash 30s linear infinite;
	}

	#bubbleHose_2_ {
	  stroke-dasharray: 5,100;
	  stroke-dashoffset: 4000;
	  animation: dash 30s linear infinite;
	}


	#bubble1{
		animation: bubbleup 5s linear infinite;
		animation-delay: -5s;
	}
	#bubble2{
		animation: bubbleup 5s linear infinite;
		animation-delay: -9s;
	}
	#bubble3{
		animation: bubbleup 5s linear infinite;
		animation-delay: -13s;
	}
	#bubble4{
		animation: bubbleup 5s linear infinite;
		animation-delay: -3s;
	}
	#bubble5{
		animation: bubbleup 5s linear infinite;
		animation-delay: -1s;
	}
	#bubble6{
		animation: bubbleup 5s linear infinite;
		animation-delay: -4s;
	}
	#bubble7{
		animation: bubbleup 5s linear infinite;
		animation-delay: -5s;
	}
	#bubble8{
		animation: bubbleup 5s linear infinite;
		animation-delay: -9s;
	}
	#bubble9{
		animation: bubbleup 5s linear infinite;
		animation-delay: -13s;
	}
	#bubble10{
		animation: bubbleup 5s linear infinite;
		animation-delay: -3s;
	}
	#bubble11{
		animation: bubbleup 5s linear infinite;
		animation-delay: -1s;
	}

	@keyframes bubbleup{
		0%{
			transform: translate(0px, 0px)

		}
		100%{
			transform: translate(0px, -450px)
		}
	}

	@keyframes dash {
	  to {
	    stroke-dashoffset: 0;
	  }
	}

	.noOverflow{
		overflow: hidden;
	}



</style>

<linearGradient id="container_1_" gradientUnits="userSpaceOnUse" x1="873.0847" y1="764.5715" x2="461.5164" y2="353.0031">
	<stop offset="0%, 50%" stop-color="#00DBDE">
		<animate attributeName="stop-color" values="#00DBDE;#29B6F6;#00DBDE;" dur="20s" repeatCount="indefinite" />
	</stop>
	<stop offset="100%, 0%" stop-color="#FC00FF">
		<animate attributeName="stop-color" values="#FC00FF;#00DBDE;#29B6F6;" dur="20s" repeatCount="indefinite" />
	</stop>
</linearGradient>
<rect id="container" x="463.5" y="351" class="st0" width="407.6" height="415.5"/>
<circle id="bubble10" class="st1" cx="617" cy="774.1" r="6.8"/>
<circle id="bubble11" class="st1" cx="592.3" cy="772.6" r="3.4"/>
<circle id="bubble6" class="st1" cx="527.9" cy="769.2" r="9.1"/>
<circle id="bubble8" class="st1" cx="686.6" cy="773.1" r="9.1"/>
<circle class="st1" cx="825.1" cy="773.2" r="7.7"/>
<circle id="bubble5" class="st1" cx="561.3" cy="770.8" r="9.1"/>
<circle id="bubble3" class="st1" cx="723" cy="774.6" r="5.8"/>
<circle id="bubble1" class="st1" cx="777" cy="773.7" r="5.8"/>
<circle id="bubble9" class="st1" cx="652.3" cy="773.1" r="3.4"/>
<circle id="bubble4" class="st1" cx="492.2" cy="763.6" r="2.9"/>
<circle id="bubble7" class="st1" cx="849.7" cy="772.9" r="3.4"/>
<g>
	<circle class="st2" cx="667.9" cy="557.7" r="152.3"/>
	<path class="st3" d="M787.1,468.9c0,0,73.1,136.4-69.8,231.2l41.4-23.7l27.4-28.6l19.7-36.2l9.8-48.8l-7.1-51.2L787.1,468.9z"/>
	<path class="st4" d="M681.5,406c0,0-206.1,33.9-130.3,249.6l-19.3-29.3L516.8,577l-0.1-37.5l11.5-42.6l33.3-48.2l32.3-24.1
		l44.1-16.2C637.9,408.3,677,406,681.5,406z"/>
	<path class="st4" d="M723.1,456.9c0,0,37.8,5.4,57.6,55c11.3,28.4,11.7,59.9,1.9,88.8c-7.1,20.8-19.8,42.5-42.4,48l15.6-15.5
		l16.1-25.3l9.2-29.4l1.7-24.2l-4.2-26.8L764,495.2C764,495.2,731.9,455.3,723.1,456.9z"/>
	<circle class="st5" cx="667.9" cy="557.7" r="152.3"/>
	<circle class="st5" cx="667.9" cy="557.7" r="109.6"/>
	<path class="st6" d="M600.1,652.6c0,0-66.4-63.8-24.5-147.6c0,0,18.5-54.3,100.4-64l-23.4-0.6l-26.6,8.3l-31.3,18.1l-25.6,28.8
		l-10.5,21.3l-6.8,29.6l0.3,25.3l5.9,25.1l11.5,23.5L600.1,652.6z"/>
	<polygon class="st7" points="649.4,506.6 684.4,506.6 673.7,545.5 684.4,541.6 678.6,560.1 668.8,563 663,584.4 715.5,584.4
		707.7,608.7 622.2,607.7 630,577.6 620.3,580.5 625.1,563 634.8,560.1 	"/>
</g>
<g class="noOverflow">
	<polygon id="reflection1" class="st8" points="54.5,549.5 674.5,-71.5 733.5,-71.5 72,585 "/>
	<polygon id="reflection2" class="st8" points="108.5,589.5 666.6,31.6 728.5,82.5 168.5,644.5 "/>
</g>
<g class="st9">
	<path class="st10" d="M161.5,624.7l5.2-4.3c0,0,24.3-40.3,66-42.6s108-9.3,145.5,37.4l4.3,10.3l11.4,3v12.1l-6.1,6.8l-5.4,2.3
		l0.9,214.9l7.4,3.3l3.4,8.1l-2.5,12l-9,1.6l0,213.4l2.6,6.3l8.7,3.5v18.9h20.4l3.8,11l-4.1,15.9l-282.6-0.4v-6.1V1140l3.4-8.1
		l18.5-0.2l2.1-5l-0.5-10.8l3.7-5.8l8.3-2.9l0.1-217.5l-10.1-2.4l-2-13.5l6.8-6.8l5.2-1.9l0.1-217.5l-10.4-2.7l-1.7-13.2
		L161.5,624.7z"/>
	<circle class="st11" cx="195.6" cy="839" r="5.9"/>
	<circle class="st12" cx="195.6" cy="793.6" r="5.9"/>
	<polygon class="st13" points="179.1,647.9 178.8,856.6 382.5,856.6 377,867.8 170.3,867.8 165.1,859.5 165.9,647.8 	"/>
	<path class="st6" d="M358.2,646.6c0,0,22.4,96.5,12.9,220.4l12.2-2.9l-0.6-216.8L358.2,646.6z"/>
	<polygon class="st6" points="382.4,659.5 166.7,659.5 166.3,646.6 382.7,647.2 	"/>
	<path class="st13" d="M364.6,625c0,0-19.8-54.9-154.2-40.5c0,0,147.1-35.5,172.1,40.9L364.6,625z"/>
	<circle class="st14" cx="195.6" cy="816.3" r="5.9"/>
	<polygon class="st13" points="155,636.1 394,636.1 392.2,626.9 156.9,626.9 	"/>
	<polygon class="st13" points="155,878.2 394,878.2 392.2,869.1 156.9,869.1 	"/>
	<path class="st5" d="M163.5,647.1h222c4.7,0,8.5-3.8,8.5-8.5v-5.2c0-4.7-3.8-8.5-8.5-8.5h-222c-4.7,0-8.5,3.8-8.5,8.5v5.2
		C155,643.3,158.9,647.1,163.5,647.1z"/>
	<path class="st5" d="M165.1,625.4c0,0,9-50.5,109-49.9c100,0.6,108.4,49.9,108.4,49.9H165.1z"/>

		<rect x="166.7" y="647.1" transform="matrix(-1 -8.560160e-15 8.560160e-15 -1 549.087 1514.1224)" class="st5" width="215.6" height="219.8"/>
	<path class="st5" d="M163.5,889.2h222c4.7,0,8.5-3.8,8.5-8.5v-5.2c0-4.7-3.8-8.5-8.5-8.5h-222c-4.7,0-8.5,3.8-8.5,8.5v5.2
		C155,885.4,158.9,889.2,163.5,889.2z"/>
	<line class="st15" x1="181.8" y1="669.1" x2="188.2" y2="669.1"/>
	<line class="st15" x1="166.7" y1="669.1" x2="175.4" y2="669.1"/>
	<line class="st15" x1="166.7" y1="676.6" x2="179.9" y2="676.6"/>
	<line class="st15" x1="364.6" y1="836.3" x2="358.2" y2="836.3"/>
	<line class="st15" x1="379.7" y1="836.3" x2="371" y2="836.3"/>
	<line class="st15" x1="379.7" y1="843.9" x2="366.5" y2="843.9"/>
	<path class="st15" d="M184.1,625.1"/>

		<ellipse transform="matrix(0.7071 -0.7071 0.7071 0.7071 -431.9696 352.8355)" class="st13" cx="209.9" cy="697.9" rx="20.3" ry="13.2"/>

		<ellipse transform="matrix(0.7071 -0.7071 0.7071 0.7071 -447.4789 365.9145)" class="st13" cx="218" cy="723.1" rx="6.3" ry="4.1"/>
	<circle class="st13" cx="227" cy="711.7" r="3"/>
	<circle class="st15" cx="195.6" cy="793.6" r="5.9"/>
	<circle class="st15" cx="195.6" cy="816.3" r="5.9"/>
	<circle class="st15" cx="195.6" cy="839" r="5.9"/>
	<line class="st15" x1="233" y1="584.5" x2="233" y2="592.9"/>
	<line class="st15" x1="240.6" y1="593.3" x2="240.6" y2="602"/>
	<line class="st15" x1="240.6" y1="577.8" x2="240.6" y2="584.6"/>
	<line class="st15" x1="336" y1="584.7" x2="336.1" y2="597.4"/>
	<circle class="st13" cx="293.7" cy="590.8" r="7.9"/>
	<circle class="st13" cx="278.5" cy="596.7" r="3"/>

		<ellipse transform="matrix(9.329344e-02 -0.9956 0.9956 9.329344e-02 -344.068 836.6381)" class="st13" cx="287.3" cy="607.2" rx="4.9" ry="5"/>
	<circle class="st11" cx="195.6" cy="954.8" r="5.9"/>
	<circle class="st12" cx="195.6" cy="909.4" r="5.9"/>
	<polygon class="st13" points="179.1,890 178.8,1098.8 382.5,1098.8 377,1109.9 170.3,1109.9 165.1,1101.6 165.9,889.9 	"/>
	<path class="st6" d="M358.2,888.8c0,0,22.4,96.5,12.9,220.4l12.2-2.9l-0.6-216.8L358.2,888.8z"/>
	<circle class="st14" cx="195.6" cy="932.1" r="5.9"/>
	<polygon class="st13" points="155,1120.3 394,1120.3 392.2,1111.2 156.9,1111.2 	"/>

		<rect x="166.7" y="889.3" transform="matrix(-1 -1.224647e-16 1.224647e-16 -1 549.087 1998.3965)" class="st5" width="215.6" height="219.8"/>
	<path class="st5" d="M163.5,1131.3h222c4.7,0,8.5-3.8,8.5-8.5v-5.2c0-4.7-3.8-8.5-8.5-8.5h-222c-4.7,0-8.5,3.8-8.5,8.5v5.2
		C155,1127.5,158.9,1131.3,163.5,1131.3z"/>
	<line class="st15" x1="166.7" y1="918.8" x2="179.9" y2="918.8"/>
	<line class="st15" x1="364.6" y1="1078.4" x2="358.2" y2="1078.4"/>
	<line class="st15" x1="379.7" y1="1078.4" x2="371" y2="1078.4"/>
	<line class="st15" x1="379.7" y1="1086" x2="366.5" y2="1086"/>

		<ellipse transform="matrix(0.7071 -0.7071 0.7071 0.7071 -561.1219 504.1212)" class="st13" cx="328" cy="929.4" rx="20.3" ry="13.2"/>

		<ellipse transform="matrix(0.7071 -0.7071 0.7071 0.7071 -576.6312 517.2002)" class="st13" cx="336" cy="954.7" rx="6.3" ry="4.1"/>
	<circle class="st13" cx="345.1" cy="943.3" r="3"/>
	<circle class="st15" cx="195.6" cy="909.4" r="5.9"/>
	<circle class="st15" cx="195.6" cy="932.1" r="5.9"/>
	<circle class="st15" cx="195.6" cy="954.8" r="5.9"/>
	<g>
		<polygon class="st13" points="131.1,1145.3 418,1145.3 415.8,1134.3 133.3,1134.3 		"/>
		<path class="st5" d="M139.6,1158.5h270c4.7,0,8.5-3.8,8.5-8.5v-9.6c0-4.7-3.8-8.5-8.5-8.5h-270c-4.7,0-8.5,3.8-8.5,8.5v9.6
			C131.1,1154.7,134.9,1158.5,139.6,1158.5z"/>
	</g>
</g>
<g class="st9">
	<path class="st10" d="M1177.5,624.7l-5.2-4.3c0,0-24.3-40.3-66-42.6s-108-9.3-145.5,37.4l-4.3,10.3l-11.4,3v12.1l6.1,6.8l5.4,2.3
		l-0.9,214.9l-7.4,3.3l-3.4,8.1l2.5,12l9,1.6l0,213.4l-2.6,6.3l-8.7,3.5v18.9h-20.4l-3.8,11l4.1,15.9l282.6-0.4v-6.1V1140l-3.4-8.1
		l-18.5-0.2l-2.1-5l0.5-10.8l-3.7-5.8l-8.3-2.9l-0.1-217.5l10.1-2.4l2-13.5l-6.8-6.8l-5.2-1.9l-0.1-217.5l10.4-2.7l1.7-13.2
		L1177.5,624.7z"/>
	<circle class="st11" cx="1143.5" cy="839" r="5.9"/>
	<circle class="st12" cx="1143.5" cy="793.6" r="5.9"/>
	<polygon class="st13" points="1159.9,647.9 1160.3,856.6 956.6,856.6 962.1,867.8 1168.8,867.8 1174,859.5 1173.2,647.8 	"/>
	<path class="st6" d="M980.9,646.6c0,0-22.4,96.5-12.9,220.4l-12.2-2.9l0.6-216.8L980.9,646.6z"/>
	<polygon class="st6" points="956.7,659.5 1172.4,659.5 1172.8,646.6 956.4,647.2 	"/>
	<path class="st13" d="M974.5,625c0,0,19.8-54.9,154.2-40.5c0,0-147.1-35.5-172.1,40.9L974.5,625z"/>
	<circle class="st14" cx="1143.5" cy="816.3" r="5.9"/>
	<polygon class="st13" points="1184,636.1 945,636.1 946.9,626.9 1182.2,626.9 	"/>
	<polygon class="st13" points="1184,878.2 945,878.2 946.9,869.1 1182.2,869.1 	"/>
	<path class="st5" d="M1175.5,647.1h-222c-4.7,0-8.5-3.8-8.5-8.5v-5.2c0-4.7,3.8-8.5,8.5-8.5h222c4.7,0,8.5,3.8,8.5,8.5v5.2
		C1184,643.3,1180.2,647.1,1175.5,647.1z"/>
	<path class="st5" d="M1174,625.4c0,0-9-50.5-109-49.9c-100,0.6-108.4,49.9-108.4,49.9H1174z"/>
	<rect x="956.7" y="647.1" class="st5" width="215.6" height="219.8"/>
	<path class="st5" d="M1175.5,889.2h-222c-4.7,0-8.5-3.8-8.5-8.5v-5.2c0-4.7,3.8-8.5,8.5-8.5h222c4.7,0,8.5,3.8,8.5,8.5v5.2
		C1184,885.4,1180.2,889.2,1175.5,889.2z"/>
	<line class="st15" x1="1157.3" y1="669.1" x2="1150.9" y2="669.1"/>
	<line class="st15" x1="1172.4" y1="669.1" x2="1163.7" y2="669.1"/>
	<line class="st15" x1="1172.4" y1="676.6" x2="1159.2" y2="676.6"/>
	<line class="st15" x1="974.5" y1="836.3" x2="980.9" y2="836.3"/>
	<line class="st15" x1="959.4" y1="836.3" x2="968.1" y2="836.3"/>
	<line class="st15" x1="959.4" y1="843.9" x2="972.6" y2="843.9"/>
	<path class="st15" d="M1155,625.1"/>

		<ellipse transform="matrix(0.7071 -0.7071 0.7071 0.7071 -162.7316 1002.8337)" class="st13" cx="1129.2" cy="697.9" rx="13.2" ry="20.3"/>

		<ellipse transform="matrix(0.7071 -0.7071 0.7071 0.7071 -182.9465 1004.5522)" class="st13" cx="1121.1" cy="723.1" rx="4.1" ry="6.3"/>
	<circle class="st13" cx="1112.1" cy="711.7" r="3"/>
	<circle class="st15" cx="1143.5" cy="793.6" r="5.9"/>
	<circle class="st15" cx="1143.5" cy="816.3" r="5.9"/>
	<circle class="st15" cx="1143.5" cy="839" r="5.9"/>
	<line class="st15" x1="1106" y1="584.5" x2="1106" y2="592.9"/>
	<line class="st15" x1="1098.5" y1="593.3" x2="1098.5" y2="602"/>
	<line class="st15" x1="1098.5" y1="577.8" x2="1098.5" y2="584.6"/>
	<line class="st15" x1="1003.1" y1="584.7" x2="1002.9" y2="597.4"/>
	<circle class="st13" cx="1045.4" cy="590.8" r="7.9"/>
	<circle class="st13" cx="1060.6" cy="596.7" r="3"/>

		<ellipse transform="matrix(0.9956 -9.329344e-02 9.329344e-02 0.9956 -52.0631 100.7718)" class="st13" cx="1051.8" cy="607.2" rx="5" ry="4.9"/>
	<circle class="st11" cx="1143.5" cy="954.8" r="5.9"/>
	<circle class="st12" cx="1143.5" cy="909.4" r="5.9"/>
	<polygon class="st13" points="1159.9,890 1160.3,1098.8 956.6,1098.8 962.1,1109.9 1168.8,1109.9 1174,1101.6 1173.2,889.9 	"/>
	<path class="st6" d="M980.9,888.8c0,0-22.4,96.5-12.9,220.4l-12.2-2.9l0.6-216.8L980.9,888.8z"/>
	<circle class="st14" cx="1143.5" cy="932.1" r="5.9"/>
	<polygon class="st13" points="1184,1120.3 945,1120.3 946.9,1111.2 1182.2,1111.2 	"/>
	<rect x="956.7" y="889.3" class="st5" width="215.6" height="219.8"/>
	<path class="st5" d="M1175.5,1131.3h-222c-4.7,0-8.5-3.8-8.5-8.5v-5.2c0-4.7,3.8-8.5,8.5-8.5h222c4.7,0,8.5,3.8,8.5,8.5v5.2
		C1184,1127.5,1180.2,1131.3,1175.5,1131.3z"/>
	<line class="st15" x1="1172.4" y1="918.8" x2="1159.2" y2="918.8"/>
	<line class="st15" x1="974.5" y1="1078.4" x2="980.9" y2="1078.4"/>
	<line class="st15" x1="959.4" y1="1078.4" x2="968.1" y2="1078.4"/>
	<line class="st15" x1="959.4" y1="1086" x2="972.6" y2="1086"/>

		<ellipse transform="matrix(0.7071 -0.7071 0.7071 0.7071 -361.0312 987.1831)" class="st13" cx="1011.1" cy="929.4" rx="13.2" ry="20.3"/>

		<ellipse transform="matrix(0.7071 -0.7071 0.7071 0.7071 -381.2461 988.9016)" class="st13" cx="1003.1" cy="954.7" rx="4.1" ry="6.3"/>
	<circle class="st13" cx="994" cy="943.3" r="3"/>
	<circle class="st15" cx="1143.5" cy="909.4" r="5.9"/>
	<circle class="st15" cx="1143.5" cy="932.1" r="5.9"/>
	<circle class="st15" cx="1143.5" cy="954.8" r="5.9"/>
	<g>
		<polygon class="st13" points="1208,1145.3 921.1,1145.3 923.3,1134.3 1205.8,1134.3 		"/>
		<path class="st5" d="M1199.5,1158.5h-270c-4.7,0-8.5-3.8-8.5-8.5v-9.6c0-4.7,3.8-8.5,8.5-8.5h270c4.7,0,8.5,3.8,8.5,8.5v9.6
			C1208,1154.7,1204.2,1158.5,1199.5,1158.5z"/>
	</g>
</g>
<circle class="st11" cx="-333.3" cy="523.5" r="7.8"/>
<circle class="st12" cx="-333.3" cy="583.5" r="7.8"/>
<circle class="st14" cx="-333.3" cy="553.5" r="7.8"/>
<line class="st15" x1="-351.6" y1="748.1" x2="-343.1" y2="748.1"/>
<line class="st15" x1="-371.5" y1="748.1" x2="-360.1" y2="748.1"/>
<line class="st15" x1="-371.5" y1="738.1" x2="-354.1" y2="738.1"/>
<line class="st15" x1="-325.8" y1="911.8" x2="-325.8" y2="889.3"/>
<line class="st15" x1="-315.8" y1="889.3" x2="-315.8" y2="877.8"/>
<line class="st15" x1="-315.8" y1="920.8" x2="-315.8" y2="900.5"/>
<line class="st15" x1="-325.7" y1="377.6" x2="-325.8" y2="356.3"/>
<path class="st15" d="M-348.6,806.3"/>
<circle class="st13" cx="-303.8" cy="857.7" r="4"/>
<ellipse transform="matrix(0.7071 -0.7071 0.7071 0.7071 -594.1767 -14.336)" class="st13" cx="-314.4" cy="710.1" rx="17.4" ry="26.9"/>
<ellipse transform="matrix(0.7071 -0.7071 0.7071 0.7071 -567.4614 -16.607)" class="st13" cx="-303.8" cy="676.7" rx="5.4" ry="8.3"/>
<circle class="st13" cx="-291.8" cy="691.7" r="4"/>
<circle class="st13" cx="-348.8" cy="409.7" r="4"/>
<circle class="st13" cx="-336.1" cy="416.8" r="6.8"/>
<circle class="st15" cx="-333.3" cy="583.5" r="7.8"/>
<circle class="st15" cx="-333.3" cy="553.5" r="7.8"/>
<circle class="st15" cx="-333.3" cy="523.5" r="7.8"/>
<line class="st16" x1="1296.5" y1="1158.5" x2="1314.5" y2="1158.5"/>
<line class="st16" x1="90.5" y1="1158.5" x2="1278.5" y2="1158.5"/>
<line class="st16" x1="24.5" y1="1158.5" x2="48.5" y2="1158.5"/>
<path class="st17" d="M-377.5-115.5h-104c-6.6,0-12-5.4-12-12v-66c0-6.6,5.4-12,12-12h104c6.6,0,12,5.4,12,12v66
	C-365.5-120.9-370.9-115.5-377.5-115.5z"/>
<path class="st6" d="M-203.5-115.5h-104c-6.6,0-12-5.4-12-12v-66c0-6.6,5.4-12,12-12h104c6.6,0,12,5.4,12,12v66
	C-191.5-120.9-196.9-115.5-203.5-115.5z"/>
<path class="st2" d="M-52.5-131.5h-104c-6.6,0-12-5.4-12-12v-66c0-6.6,5.4-12,12-12h104c6.6,0,12,5.4,12,12v66
	C-40.5-136.9-45.9-131.5-52.5-131.5z"/>
<path class="st18" d="M971.2-35.5"/>
<path class="st18" d="M1037.5-34.3"/>
<path class="st5" d="M823.5,940.9v92.8c0,0-1.1,26-26,26h-41.9l-2.2-65.7C753.4,994.1,800.9,971.5,823.5,940.9z"/>
<path class="st19" d="M579,994.1l-1.1,112.8l6.8,9.4h169.9l-1.2-122.3C753.4,994.1,671.8,1031.5,579,994.1z"/>
<path class="st19" d="M263.1,1157.2H1076c0,0,3.4-45.3-36.2-45.3H292.5C292.5,1111.9,260.8,1114.1,263.1,1157.2z"/>
<path class="st19" d="M824.7,940.9v92.8c0,0-1.1,26-26,26h-41.9l-2.2-65.7C754.5,994.1,802,971.5,824.7,940.9z"/>
<path class="st13" d="M974.1,1117.5c0,0,70.2-1.1,80.4,39.6h21.5l-7.9-31.8l-9.6-9l-18.7-4.5l-65.7-0.3V1117.5z"/>
<path id="bubbleHose_2_" class="st20" d="M437.5,871.5l-42.6,0.7c-22.1,0-40,17.9-40,40l0,164.6"/>
<path class="st10" d="M441,876c-5.5-13.5,1-28.8,14.4-34.3l7.1-2.9l19.9,48.8l-7.1,2.9C461.8,895.9,446.5,889.5,441,876L441,876"/>
<path class="st10" d="M381.1,1110.8h-52.6v-7.6c0-14.5,11.8-26.3,26.3-26.3h0c14.5,0,26.3,11.8,26.3,26.3V1110.8z"/>
<path class="st21" d="M450,844.7c0,0,15.8,46.4,24.8,46.4l7.5-8.3l-20-43.8L450,844.7z"/>
<path class="st10" d="M824.1,947.4v52.6h7.6c14.5,0,26.3-11.8,26.3-26.3l0,0c0-14.5-11.8-26.3-26.3-26.3H824.1z"/>
<path class="st13" d="M342.7,1110.8c0,0-2.5-27.6,18.9-33.1l-19.3,0.2l-12.2,15.9l-1.7,13.2L342.7,1110.8z"/>
<path class="st5" d="M873.4,608h21.5c20,0,36.2,15.9,36.2,35.6v294.6c0,19.6-16.2,35.6-36.2,35.6l-36.4-0.1"/>
<path class="st10" d="M462.4,808.4c0,0,12.5,199.3,207.2,202.7c0,0,178.9,11.3,203.8-202.7H462.4z"/>
<path class="st13" d="M513.6,809.6c0,0-57.5,134.9,193.3,201.6l-56.6-0.1L562,982.8l-52.1-47.6L474.8,858l-12.5-49.6L513.6,809.6z"
	/>
<path id="GreenLightMiddle" class="st11" d="M670.7,903.6h-6.9c-14.3,0-26-11.7-26-26v-6.9c0-14.3,11.7-26,26-26h6.9
	c14.3,0,26,11.7,26,26v6.9C696.7,891.9,685,903.6,670.7,903.6z"/>
<path class="st22" d="M875.2,349.9H460.5c-10.2,0-18.5-8.3-18.5-18.5v-4.9c0-10.2,8.3-18.5,18.5-18.5h414.8
	c10.2,0,18.5,8.3,18.5,18.5v4.9C893.7,341.6,885.4,349.9,875.2,349.9z"/>
<path id="bubbleHose_1_" class="st20" d="M894.9,608c20,0,36.2,15.9,36.2,35.6v294.6c0,19.6-16.2,35.6-36.2,35.6l-36.4-0.1"/>
<path class="st10" d="M871.1,580.6v52.6h7.6c14.5,0,26.3-11.8,26.3-26.3v0c0-14.5-11.8-26.3-26.3-26.3H871.1z"/>
<path class="st13" d="M446.5,321.6h445.9l-8.8-13.6c0,0-408.7-5.7-417.8-2.3c-9.1,3.4-21,12.8-21,12.8L446.5,321.6z"/>
<circle id="BlueLightTop" class="st11" cx="723.3" cy="35.7" r="22.1"/>
<path class="st13" d="M723.9,14.7c0,0,5.3,29.7-20.6,33C703.3,47.7,691.1,13.6,723.9,14.7z"/>
<path id="orangeLightTop_1_" class="st12" d="M495.8,199c0,0-32.3-24.6-7.4-50.6c0,0,15.5-16.8,42.8,4.1
	C531.2,152.4,503.3,172.6,495.8,199z"/>
<path class="st13" d="M508.8,140.4c0,0-3.4,30.6-32.8,35.1C476,175.5,482.7,137,508.8,140.4z"/>
<path class="st10" d="M873.4,303.5c0,0-17-206.1-206.1-203.8c-189.1,2.3-204.9,203.8-204.9,203.8H873.4z"/>
<path class="st13" d="M485,303.5c0,0,18.1-173.8,211.7-202.4c0,0-207.2-25.2-234.4,206.9L485,303.5z"/>
<path class="st6" d="M684.6,173.2c23.6,13.7,27,28.9,24.5,40.6c-2.6,12.4-12.3,22.3-24,26.1c-33.2,10.7-47.9-19.1-47.9-19.1
	L684.6,173.2z"/>
<path id="greenMiddle" class="st14" d="M670.7,233.3h-6.9c-14.3,0-26-11.7-26-26v-6.9c0-14.3,11.7-26,26-26h6.9
	c14.3,0,26,11.7,26,26v6.9C696.7,221.6,685,233.3,670.7,233.3z"/>
<path class="st5" d="M875.2,349.9H460.5c-10.2,0-18.5-8.3-18.5-18.5v-4.9c0-10.2,8.3-18.5,18.5-18.5h414.8
	c10.2,0,18.5,8.3,18.5,18.5v4.9C893.7,341.6,885.4,349.9,875.2,349.9z"/>
<path class="st5" d="M873.4,303.5c0,0-17-206.1-206.1-203.8c-189.1,2.3-204.9,203.8-204.9,203.8H873.4z"/>
<path class="st13" d="M667.3,174.4c0,0,9.9,44.4-17.1,53.3C650.2,227.7,616.3,185.7,667.3,174.4z"/>
<path class="st5" d="M670.7,233.3h-6.9c-14.3,0-26-11.7-26-26v-6.9c0-14.3,11.7-26,26-26h6.9c14.3,0,26,11.7,26,26v6.9
	C696.7,221.6,685,233.3,670.7,233.3z"/>
<ellipse transform="matrix(0.7071 -0.7071 0.7071 0.7071 49.5031 468.6681)" class="st13" cx="590.5" cy="174.6" rx="27.4" ry="19.5"/>
<circle class="st13" cx="552.4" cy="201" r="10.8"/>
<circle class="st13" cx="575" cy="208.9" r="4"/>
<path class="st5" d="M494.7,197.8c0,0-32.3-24.6-7.4-50.6c0,0,15.5-16.8,42.8,4.1C530.1,151.3,502.1,171.5,494.7,197.8z"/>
<line class="st15" x1="860.9" y1="254.8" x2="806.6" y2="254.8"/>
<line class="st15" x1="833.7" y1="266.1" x2="822.4" y2="266.1"/>
<line class="st15" x1="860.9" y1="266.1" x2="847.3" y2="266.1"/>
<line class="st15" x1="498" y1="201" x2="513.9" y2="201"/>
<line class="st15" x1="486.7" y1="212.3" x2="502.6" y2="212.3"/>
<path id="RedLight" class="st23" d="M804.4,152.2c0,0,32.1-24.9,50.8,5.9c0,0,12.2,19.3-15,40.3C840.3,198.5,828,166.2,804.4,152.2z
	"/>
<path class="st13" d="M833.5,146c0,0,16.7,24.7-10,20.4c0,0-8.4-9.2-7.2-15.1C817.1,147.4,824.4,145.6,833.5,146z"/>
<path class="st5" d="M805.8,151.4c0,0,32.1-24.9,50.8,5.9c0,0,12.2,19.3-15,40.3C841.7,197.7,829.4,165.4,805.8,151.4z"/>
<line class="st5" x1="723.7" y1="105.9" x2="723.7" y2="57.8"/>
<circle class="st5" cx="723.3" cy="35.7" r="22.1"/>
<polygon class="st6" points="468,372.5 873.4,372.5 873.4,349.9 462.4,349.9 "/>
<polygon class="st6" points="468,832.2 873.4,832.2 873.4,809.6 462.4,809.6 "/>
<rect x="464.1" y="349.9" class="st5" width="407.6" height="415.5"/>
<path class="st22" d="M875.2,808.4H460.5c-10.2,0-18.5-8.3-18.5-18.5v-4.9c0-10.2,8.3-18.5,18.5-18.5h414.8
	c10.2,0,18.5,8.3,18.5,18.5v4.9C893.7,800.1,885.4,808.4,875.2,808.4z"/>
<path class="st13" d="M446.5,781.3h445.9l-8.8-13.6c0,0-408.7-5.7-417.8-2.3c-9.1,3.4-21,12.8-21,12.8L446.5,781.3z"/>
<path class="st5" d="M875.2,808.4H460.5c-10.2,0-18.5-8.3-18.5-18.5v-4.9c0-10.2,8.3-18.5,18.5-18.5h414.8
	c10.2,0,18.5,8.3,18.5,18.5v4.9C893.7,800.1,885.4,808.4,875.2,808.4z"/>
<path class="st5" d="M462.4,808.4c0,0,12.5,199.3,207.2,202.7c0,0,178.9,11.3,203.8-202.7H462.4z"/>
<path class="st13" d="M667.3,844.7c0,0,9.9,44.4-17.1,53.3C650.2,898,616.3,856,667.3,844.7z"/>
<path class="st5" d="M670.7,903.6h-6.9c-14.3,0-26-11.7-26-26v-6.9c0-14.3,11.7-26,26-26h6.9c14.3,0,26,11.7,26,26v6.9
	C696.7,891.9,685,903.6,670.7,903.6z"/>
<path id="greenLightBottom" class="st14" d="M567.8,894.7H563c-10,0-18.2-8.2-18.2-18.2v-4.8c0-10,8.2-18.2,18.2-18.2h4.8
	c10,0,18.2,8.2,18.2,18.2v4.8C586,886.5,577.8,894.7,567.8,894.7z"/>
<path class="st13" d="M565.4,853.5c0,0,6.9,31.1-12,37.3C553.4,890.8,529.7,861.4,565.4,853.5z"/>
<path class="st5" d="M567.8,894.7H563c-10,0-18.2-8.2-18.2-18.2v-4.8c0-10,8.2-18.2,18.2-18.2h4.8c10,0,18.2,8.2,18.2,18.2v4.8
	C586,886.5,577.8,894.7,567.8,894.7z"/>
<path id="orangeLightBottom" class="st12" d="M771.6,894.7h-4.8c-10,0-18.2-8.2-18.2-18.2v-4.8c0-10,8.2-18.2,18.2-18.2h4.8
	c10,0,18.2,8.2,18.2,18.2v4.8C789.8,886.5,781.6,894.7,771.6,894.7z"/>
<path class="st13" d="M769.2,853.5c0,0,6.9,31.1-12,37.3C757.2,890.8,733.5,861.4,769.2,853.5z"/>
<path class="st5" d="M771.6,894.7h-4.8c-10,0-18.2-8.2-18.2-18.2v-4.8c0-10,8.2-18.2,18.2-18.2h4.8c10,0,18.2,8.2,18.2,18.2v4.8
	C789.8,886.5,781.6,894.7,771.6,894.7z"/>
<circle class="st13" cx="519.1" cy="849.3" r="7.6"/>
<circle class="st13" cx="508.4" cy="862.4" r="2.8"/>
<line class="st15" x1="867.9" y1="841.7" x2="834.9" y2="841.7"/>
<line class="st15" x1="838.3" y1="853" x2="828.1" y2="853"/>
<path class="st13" d="M278.9,1150.4c0,0,0-21.5,24.9-21.5c24.9,0,248,0,248,0l4.5-17l-271.8,2.1l-17.4,17.1l0.5,19.2H278.9z"/>
<line class="st15" x1="861.1" y1="853" x2="854.1" y2="853"/>
<line class="st15" x1="521.2" y1="948.7" x2="556.3" y2="948.8"/>
<line class="st15" x1="531.2" y1="960.1" x2="551.2" y2="959.6"/>
<path id="bubblehose" class="st5" d="M434.1,872.2h-39.2c-22.1,0-40,17.9-40,40l0,164.6"/>
<path class="st5" d="M873.4,580.6v52.6h7.6c14.5,0,26.3-11.8,26.3-26.3v0c0-14.5-11.8-26.3-26.3-26.3H873.4z"/>
<path class="st21" d="M852,956.9c0,0-22.2-3.5-17.7,42.9h-10.2v-59.4L852,956.9z"/>
<path class="st5" d="M824.1,947.4v52.6h7.6c14.5,0,26.3-11.8,26.3-26.3l0,0c0-14.5-11.8-26.3-26.3-26.3H824.1z"/>
<path class="st5" d="M381.1,1110.8h-52.6v-7.6c0-14.5,11.8-26.3,26.3-26.3h0c14.5,0,26.3,11.8,26.3,26.3V1110.8z"/>
<path class="st5" d="M441,876c-5.5-13.5,1-28.8,14.4-34.3l7.1-2.9l19.9,48.8l-7.1,2.9C461.8,895.9,446.5,889.5,441,876L441,876"/>
<polygon class="st21" points="883.6,580.6 883.6,631.5 871.1,631.5 871.1,580.9 "/>
<path class="st6" d="M754.5,1007.7c0,0,51-19.2,69.1-48.7l-3.4-18.1c0,0-63.3,56.2-70.2,55.9L754.5,1007.7z"/>
<path class="st13" d="M802.8,963.2c0,0,8.3,77.4-20,91h31.4l9.4-11.3v-97.4L802.8,963.2z"/>
<path class="st5" d="M823.5,940.9v92.8c0,0-1.1,26-26,26h-41.9l-2.2-65.7C753.4,994.1,800.9,971.5,823.5,940.9z"/>
<path class="st10" d="M925.5,1111.5v-7.8c0-23.4-18.4-42.9-41.8-43.6c-0.6,0-1.2,0-1.8,0H756.7v51.4H925.5z"/>
<path class="st13" d="M829.4,1065.7c0,0,70-11.2,81.6,45.8h14.5l-2.2-22.1l-7.1-12.9l-18.6-13l-19.6-3.4h-47.8
	c-0.3,0-0.6,0.4-0.4,0.7L829.4,1065.7z"/>
<path class="st5" d="M925.5,1111.9v-8.5c0-22.9-17.7-42.3-40.6-43.5c-1.2-0.1-2.3-0.1-3.5-0.1H754.5v52.1H925.5z"/>
<path class="st19" d="M507.7,940.9v92.8c0,0,1.1,26,26,26h41.9l2.2-65.7C577.9,994.1,530.3,971.5,507.7,940.9z"/>
<path class="st6" d="M577.9,1007.7c0,0-51-19.2-69.1-48.7l3.4-18.1c0,0,63.3,56.2,70.2,55.9L577.9,1007.7z"/>
<path class="st13" d="M529.6,963.2c0,0-8.3,77.4,20,91h-31.4l-9.4-11.3v-97.4L529.6,963.2z"/>
<path class="st5" d="M508.8,940.9v92.8c0,0,1.1,26,26,26h41.9l2.2-65.7C579,994.1,531.5,971.5,508.8,940.9z"/>
<path class="st10" d="M406.9,1111.5v-7.8c0-23.4,18.4-42.9,41.8-43.6c0.6,0,1.2,0,1.8,0h125.1v51.4H406.9z"/>
<path class="st13" d="M503,1065.7c0,0-70-11.2-81.6,45.8h-14.5l2.2-22.1l7.1-12.9l18.6-13l19.6-3.4h47.8c0.3,0,0.6,0.4,0.4,0.7
	L503,1065.7z"/>
<polygon class="st17" points="599.4,1110.8 604,1002.5 580.9,1000.4 582.4,1110.8 "/>
<path class="st5" d="M406.9,1111.9v-8.5c0-22.9,17.7-42.3,40.6-43.5c1.2-0.1,2.3-0.1,3.5-0.1h126.8v52.1H406.9z"/>
<path class="st5" d="M263.1,1157.2H1076c0,0,3.4-45.3-36.2-45.3H292.5C292.5,1111.9,260.8,1114.1,263.1,1157.2z"/>
<path class="st22" d="M797.5,1156c2.1-3.4,0-0.4,0-4.7v-12.9c0-12.1-9.9-22.1-22.1-22.1H560.3c-12.1,0-22.1,9.9-22.1,22.1v12.9
	c0,1.9,0.3,3.8,0.7,5.6L797.5,1156z"/>
<path class="st13" d="M552.9,1151.5c0,0,0-22.6,37.4-23.8c36.2-1.1,36.2-1.1,200.4,0l-9.1-10.2l-230.1,0.7c0,0-22.4,18.6-15.6,40.1
	h17V1151.5z"/>
<path class="st5" d="M797.5,1156c2.1-3.4,0-0.4,0-4.7v-12.9c0-12.1-9.9-22.1-22.1-22.1H560.3c-12.1,0-22.1,9.9-22.1,22.1v12.9
	c0,1.9,0.3,3.8,0.7,5.6L797.5,1156z"/>
<path class="st5" d="M579,994.1l-1.1,112.8l6.8,9.4h169.9l-1.2-122.3C753.4,994.1,671.8,1031.5,579,994.1z"/>
<path class="st6" d="M580.9,1007.7c0,0,72.8,36.2,169,0l-4.5-10.5c0,0-104.2,29.7-166.5-3.1L580.9,1007.7z"/>
<polygon class="st1" points="658.5,1042 673.1,1042 668.6,1058.1 673.1,1056.5 670.6,1064.2 666.6,1065.4 664.2,1074.3 686,1074.3
	682.8,1084.4 647.2,1084 650.4,1071.5 646.4,1072.7 648.4,1065.4 652.4,1064.2 "/>
<line class="st15" x1="577.3" y1="1023" x2="602.8" y2="1023.2"/>
<line class="st15" x1="604" y1="1034.5" x2="610.7" y2="1034.5"/>
<line class="st15" x1="577.3" y1="1034.3" x2="592.4" y2="1034.4"/>
<line class="st15" x1="729" y1="1084.1" x2="753.4" y2="1084.1"/>
<line class="st15" x1="737.5" y1="1095.5" x2="753.4" y2="1095.5"/>
<circle class="st13" cx="816.4" cy="903.3" r="7.6"/>
<circle class="st13" cx="811.5" cy="887.1" r="2.8"/>
<circle class="st13" cx="857.1" cy="1082.1" r="7.6"/>
<circle class="st13" cx="841.3" cy="1076.3" r="2.8"/>
<circle class="st13" cx="472.4" cy="1084.9" r="7.6"/>
<circle class="st13" cx="488" cy="1078.6" r="2.8"/>
</svg>
