<?xml version="1.0" encoding="utf-8"?>
<!-- Generator: Adobe Illustrator 22.1.0, SVG Export Plug-In . SVG Version: 6.00 Build 0)  -->
<svg version="1.1" id="Layer_1" xmlns="http://www.w3.org/2000/svg" xmlns:xlink="http://www.w3.org/1999/xlink" x="0px" y="0px"
	 viewBox="0 0 2000 2000" style="enable-background:new 0 0 2000 2000;" xml:space="preserve">
<style type="text/css">
	.st0{fill:#66BB6A;}
	.st1{opacity:0.1;fill:#FFFFFF;}
	.st2{fill:#5E35B1;}
	.st3{opacity:0.1;}
	.st4{fill:#9575CD;}
	.st5{fill:#FFA726;}
	.st6{fill:#EC407A;}
	.st7{fill:none;stroke:#4A148C;stroke-width:21;stroke-linecap:round;stroke-linejoin:round;stroke-miterlimit:10;}
</style>
<path class="st0" d="M1357,1581.5c0,0,15.4-69.9,59.8-106.1c44.4-36.1,103.3-77,172.1-59.8c0,0-17.1,100.9-111,150.6
	C1384,1616.1,1357,1581.5,1357,1581.5z"/>
<polygon class="st1" points="1367.9,1582.5 1588.8,1415.7 1535.2,1408.9 1478.9,1432.7 1416.8,1475.5 1376.1,1529.2 1357,1581.5 "/>
<g>
	<polygon class="st2" points="577.5,1578.5 590,1902 617,1917 646,1917 678,1884 685,1861 685.5,1679.5 684.5,1658.5 651.7,1645.3
		625,1628 603.5,1591.5 	"/>
	<path class="st1" d="M678,1709c0,0-41,0-41,33s0,174.6,0,174.6l31-15.6l17.5-34v-148L678,1709z"/>
</g>
<polygon class="st2" points="783,1589 784,1813 811,1828 840,1828 872,1795 879,1772 879.5,1590.5 "/>
<path class="st1" d="M872,1620c0,0-41,0-41,33s0,174.6,0,174.6l31-15.6l17.5-34v-148L872,1620z"/>
<g>
	<polygon class="st2" points="685,1658 688,1869 713,1879 735,1879 767,1868 775,1848 774,1823 774.5,1641.5 773,1582 750,1582
		716.6,1640.6 	"/>
	<path class="st1" d="M767,1671c0,0-41,0-41,33s0,174.6,0,174.6l41-10.6l7.5-39v-148L767,1671z"/>
</g>
<g>
	<path class="st2" d="M690,830c0,0-84,6-137,73c0,0-37.5,57.5-35.5,71.5s0,481,0,481s14,119,67,126h16c0,0,14,65,75,71s75-78,75-78
		l22,7l36-17l21-17l13-24l9-44v-43c0,0,84,12,83-107s0-281,0-281s21-101-105-175C829.5,873.5,764.5,819.5,690,830z"/>
	<polygon class="st1" points="660,938 732,938 711,970 684,970 	"/>
	<polygon class="st1" points="747,1023 819,1023 798,1055 771,1055 	"/>
	<polygon class="st1" points="577,1023 649,1023 628,1055 601,1055 	"/>
	<polygon class="st1" points="662,1106 734,1106 713,1138 686,1138 	"/>
	<path class="st3" d="M650.5,838.3c0,0-87.5,66.7-88.5,139.7s0,580,0,580l-19.4-10.4l-16.6-49.1l-9-43.4V974l36-71
		C553,903,623,834.7,650.5,838.3z"/>
	<path class="st3" d="M660,1334v319c0,0-55.9-17.9-56.4-61.4C603,1548,604,1334,604,1334H660z"/>
	<polygon class="st1" points="797.1,1275 798.5,1572.9 829,1547 851,1510 847,1218 	"/>
	<path class="st1" d="M717,830c0,0,163,97,121,274s-240,225-240,225l77.5-0.5l77-22c0,0,83-57,92-88S885,1122,885,1122l1,300.9
		l48.5-37.4v-56l1.3-288.2l-14.9-74.1l-41.4-56.5l-112.6-71.5L717,830z"/>
</g>
<g>
	<path class="st4" d="M552,129c0,0,31-4,72,41s105.5,91.5,175.5,94.5l-56,53l-83-17l-108-50l-36-48v-35l16-28L552,129z"/>
	<path class="st1" d="M544.6,133c0,0,48.4,149,218.4,155l34.1-23.6c0,0-127.6-26.9-167.6-87.4S544.6,133,544.6,133z"/>
</g>
<g>
	<path class="st5" d="M1351,623c0,0-161,128-243,133s-133,7-187,0s-102-73-102-73l-10-32l10-37l33-21l33.5-12.5h26l56,18l33,5l60,1
		h183l76,5L1351,623z"/>
	<path class="st1" d="M1159,610c0,0-128,0-125,52s77,78,159,62s153-107,153-107S1196,602,1159,610z"/>
</g>
<g>
	<path class="st5" d="M917,245c0,0,367-111,630,130c0,0-146.5-1.5-157.5,248.5c0,0-107-30-240-16s-171-6-238-30c0,0,132-38,149-146
		S993.5,261.5,917,245z"/>
	<path class="st1" d="M920.9,245.9c0,0,119.1-50.9,337.1-9.9s279.5,130.5,279.5,130.5l-71,38c0,0-126-115-323-86
		c0,0-89.1,16-82.6,101l-6.6-63.8l-21.8-44.2l-63.4-48.1L920.9,245.9z"/>
	<path class="st1" d="M1393,580.3c0,0-153-29.3-240-37.3s-92.1-114.5-92.1-114.5s18.4-40.6-7.8-77.6s-31.7-67.1-65.4-77
		s-66.8-28-66.8-28L1018,221l119-1.3l131.3,14.8l124.7,38.9l149,88.6l-65,38l-51.5,48.5l-25,81L1393,580.3z"/>
</g>
<g>
	<path class="st6" d="M1543.5,372.5c0,0-164,26-148,251c0,0,121,29,184,110l36,23l26-25c0,0,12-99,13-101s-23-117-23-117
		S1575.5,376.5,1543.5,372.5z"/>
	<path class="st1" d="M1426,460c0,0-18,102,88,147s57.4,116.8,57.4,116.8L1616,757l33.7-65.4L1644,546l-64.3-136.6l-32.7-36
		l-48.3,15.7l-54.5,44.5L1426,460z"/>
	<path class="st1" d="M1632,546c0,0-43-9-22,51s8.1,149.2-13.9,147.1C1574,742,1614,757,1614,757l35-54l6-105L1632,546z"/>
	<path class="st1" d="M1622,500c0,0-19,52-69,4s-37.9-57.1-127.4-43.5c0,0,68.4-93.9,111.9-86.7C1537.5,373.8,1618,441,1622,500z"/>
</g>
<g>
	<path class="st4" d="M545,250c0,0,110,68,182,62c0,0-25,46-37,50s-46,20-84,13s-70-5-96-49S545,250,545,250z"/>
	<path class="st3" d="M528,265.8c0,0-10,80.2,188,65.2l11-24.8c0,0-153-29.6-182-56.2L528,265.8z"/>
</g>
<g>
	<g>
		<path class="st4" d="M847,250c0,0-198,84-234,250c0,0-48.5,138.5-28.5,201.5l55,45l58,16l102,12l78,27l66,43l72,78l58,94l22,73
			l7,76l8,60l35,57l53,31l63,16l55-9l64-40l29-60v-73c0,0-11-111-28-133s-33-76-68-111s-126-117-219-141h-100l-94-12
			c0,0-72-32-80-62s-2-60-2-60s28-54,93-48l83-44l43-52l23-53v-69l-27-51l-54-40l-45-21C934.5,250.5,867.5,239.5,847,250z"/>
		<path class="st3" d="M698,362c0,0-116.4,245.5-37.7,307c1.4,1.1,2.6,2.2,3.9,3.4c3.7,3.6,19.1,14.7,80.8,37.6
			c78,29,106.5,82.5,106.5,82.5s-74.6-28-147.8-29.5s-115.2-66.5-115.2-66.5l-5-109C583.5,587.5,630.5,378.5,698,362z"/>
		<path class="st1" d="M752.5,305.9c0,0,132.5-46.9,201.5,14.1c61,53.9,97,141,69,190l37.5-78.5l0.4-59l-27.4-61c0,0-62-65-127-67
			S786.5,269.4,752.5,305.9z"/>
	</g>
	<path class="st1" d="M985,763c0,0,145.1,64.2,226.7,193.6c28.9,45.9,44.9,98.7,48.1,152.9c1.9,32.6,11.2,78.7,48.2,84.5
		c0,0,83,7,102-72c0,0-22.5-211.5-206.5-308.5C1203.5,813.5,1144.5,750.5,985,763z"/>
</g>
<g>
	<path class="st2" d="M584,701l14,161c0,0,55-36,98-33s126.5,14.5,175.5,76.5s63,94,63,94v351l-14,56l-26,16l-43,18l-5,77l-34,47
		l-29,25l277,1l75-18l109-65l86-92l44-81l20-45l11-36l-54,47l-35,20l-55,9l-52-13l-45-23l-39-34l-17-42l-6-52l-5-61l-17-63l-33-71
		l-47-65l-61-67l-72-42l-58-18l-84-16l-68-6l-45-28L584,701z"/>
	<path class="st3" d="M929.8,1369.4c0,0,91.2,202.6,363.2,91.6l-85,75l-114,53l-310.5,0.5v-17l37-14.5l25.5-33l5.5-40l-0.4-38.4
		L872,1433l48.5-26.5L929.8,1369.4z"/>
	<path class="st3" d="M745,830c0,0,10-56,88-44l-101-22.3l-56.5-5.6l-31-9.6L598,721h-14l8,144l39.7-19.9
		C631.7,845.1,680,817,745,830z"/>
</g>
<path class="st0" d="M1223,1590c0,0,71,9,111,50s86,96,75,166c0,0-102-8-160-97S1223,1590,1223,1590z"/>
<polygon class="st1" points="1217,1590 1409,1806 1411,1752 1382.2,1698 1334,1640 1276.9,1604.4 1223,1590 "/>
<g>
	<path class="st7" d="M850.5,1437c90-9,80-77,80-77s8.3-319.3,0-360c-6-29.5-41-74-41-74s-91-123-227-91s-143,153-143,153
		l-0.5,410.5c0,0-18,185,82,183"/>
	<path class="st7" d="M885,1071c0,0,8,285-310,262"/>
	<path class="st7" d="M748.5,1306.6c0,0,5,173.4,0,257.4s-66,89-66,89c-89-11-82-89-82-89l-0.1-229.5"/>
	<path class="st7" d="M851.5,1205.5l-0.4,274c0,0,2,108-105.5,102"/>
	<path class="st7" d="M660.5,938.5c0,0,37,80,75,0"/>
	<path class="st7" d="M660.5,1104.5c0,0,37,80,75,0"/>
	<path class="st7" d="M745.5,1023.5c0,0,37,80,75,0"/>
	<path class="st7" d="M575.5,1023.5c0,0,37,80,75,0"/>
	<path class="st7" d="M579,1581.8l6,277.7c0.4,20.2,9.2,39.5,24.6,52.6c13.8,11.7,32.5,18,53-1.4c14.2-13.4,21.9-32.2,21.9-51.7
		v-201.5"/>
	<path class="st7" d="M779.5,1581.5l-0.5,241c0,0-7,84-94,37"/>
	<line class="st7" x1="779.5" y1="1590.5" x2="1683.5" y2="1590"/>
	<path class="st7" d="M879.5,1590.5L879,1764c0,18.4-7.2,36.3-20.4,49.2c-15.9,15.5-41.6,25.3-79.1-3.2"/>
	<line class="st7" x1="384.5" y1="1589.5" x2="290.5" y2="1589.5"/>
	<line class="st7" x1="574.5" y1="1589.5" x2="432.5" y2="1589.5"/>
	<line class="st7" x1="1751.5" y1="1589.5" x2="1727.5" y2="1589.5"/>
	<path class="st7" d="M1042,1590c0,0,169.5-6.5,284.5-168.5s84-309,64-380s-87-204-292-276c0,0-45-2-132-8c-30.9-2.1-133-10-154-99
		c0,0-13-69,95-81c62.7-7,105.5-53.7,130.4-91.7c27.7-42.3,32.5-95.8,11.5-141.7c-16.7-36.5-50.3-74.3-116.9-93.6
		c-152-44-289,173-289,173s-73,120-58,278l6.6,163.6"/>
	<path class="st7" d="M1405.5,1233.5c0,0-54,111-152,94c-77.7-13.5-137-46-147-122s-3-136-38-199s-105-180-232-222c0,0-81-20-123-21
		s-109.7-17.6-129.4-80.3"/>
	<path class="st7" d="M847.5,419.5c0,0,1-55,51-57s55,57,55,57"/>
	<path class="st7" d="M752.5,502.5c0,0,56,17,66-39"/>
	<path class="st7" d="M892,244.6c0,0,256.5-75.1,517.5,38.9c225.6,98.5,239.8,288.9,239.5,338.8c-0.1,8.8,0,17.6,0.2,26.5
		c0.6,28.6-2,91.6-35.7,107.7c0,0-14,1-81-68s-237-82-237-82s-225,2-272-1s-146.8-13.2-226.4-107.1"/>
	<path class="st7" d="M1397.5,623.7c0,0-29-213.2,140-248.2"/>
	<path class="st7" d="M809.2,265.3c-57.3-6.2-134.7-31.8-162.7-67.8c-15.6-20.1-31.8-38.3-43.1-50.5c-13.7-14.7-34.3-21.2-53.7-16
		c-18.9,5-36.6,20.5-32.1,62.5c9,84,167.8,120.3,222.9,118.6"/>
	<path class="st7" d="M551.1,250.1c0,0-81.6,46.4-24.6,96.4s163.7,16,163.7,16"/>
	<path class="st7" d="M1068.6,763c0,0,210.6-48.5,282.7-149"/>
	<path class="st7" d="M1217,1590c0,0-10.5,187.5,192.5,216.5c0,0,23-154-172.5-216.5"/>
	<path class="st7" d="M1358,1589.5c0,0,45.5-195,246.5-182c0,0-39,161-207,182.5"/>
</g>
</svg>
